<svg width="242" height="180" viewBox="0 0 242 180" fill="none" xmlns="http://www.w3.org/2000/svg">
<g clip-path="url(#clip0_1_2192)">
<path d="M47.3149 128.36C48.7237 127.573 50.0437 126.732 51.5921 126.216C52.1505 126.009 52.7384 126.25 53.0725 126.703C53.7576 127.68 54.172 128.797 54.7851 129.791C55.3983 130.785 56.1172 131.906 56.172 133.108C55.6981 133.674 55.1184 134.114 54.4331 134.427C52.0344 135.522 49.8597 137.248 48.4845 139.468C47.7524 140.551 48.0693 142.222 46.8594 142.886C45.5056 143.584 44.1518 144.281 42.6754 144.78C40.9113 145.347 39.2317 146.273 37.4676 146.839C35.3778 147.634 33.3555 148.717 31.2995 149.655C29.3704 150.488 27.6146 151.736 25.6855 152.569C23.2148 153.681 20.8837 155.064 18.2778 155.6C16.628 155.684 15.647 154.094 14.7842 153.006C13.9258 151.615 12.7797 150.29 12.1582 148.615C12.7126 147.422 13.9394 146.83 15.0056 146.2C18.6397 143.904 22.2358 141.768 26.0095 139.743C33.0705 135.882 40.1652 132.165 47.3149 128.36Z" fill="#333F72"/>
<path d="M211.729 63.2991C217.034 60.6859 222.289 57.857 227.767 55.6584C230.221 54.4745 232.831 53.6332 235.319 52.593C236.017 52.6566 236.346 53.4139 236.697 53.9385C237.116 54.7508 237.839 55.5674 237.843 56.553C237.708 57.2679 236.917 57.4538 236.447 57.716C233.02 59.2805 229.543 60.6292 226.205 62.2487C223.747 63.7372 221.06 64.9 218.408 66.2066C216.132 67.5005 213.733 68.5957 211.351 69.7627C209.058 70.9848 206.575 71.7203 204.248 72.7985C203.356 72.553 202.709 71.415 203.187 70.5436C202.894 70.1572 202.624 69.7652 202.379 69.3675C202.603 68.7076 202.528 67.7389 203.319 67.5529C206.204 66.2675 208.844 64.5845 211.729 63.2991Z" fill="#333F72"/>
<path d="M60.097 93.6325C60.7359 92.7993 61.2691 91.8392 62.2083 91.3148C63.4013 90.579 64.7847 90.3297 66.2018 90.2243C66.4344 90.2455 66.8997 90.2879 67.1155 90.2371C67.1493 90.381 67.1281 90.6136 67.09 90.7744C64.9749 90.8162 62.551 91.1584 61.3238 93.0406C60.3887 94.5506 58.9925 95.7136 57.2834 96.1912C56.4754 96.3053 55.8577 96.9058 55.811 97.6757C55.5612 98.8728 55.7598 100.04 55.7257 101.187C55.565 101.149 55.2604 101.144 55.1716 101.089C54.9435 99.4734 54.487 97.5316 55.6167 96.2036C57.0467 95.1844 58.9842 95.0325 60.097 93.6325Z" fill="black"/>
<path d="M71.0287 88.4825C71.7859 88.1527 72.5896 88.3432 73.3764 88.4618C74.6457 87.4045 76.2321 86.728 77.8776 86.9483C79.0028 87.2151 80.0349 87.7313 81.1219 88.1588C82.1499 87.6895 83.1823 86.9156 84.3455 87.0215C85.7034 87.3095 86.9469 88.0796 88.0465 88.8836C87.9196 88.9893 87.8265 89.2389 87.7715 89.3277C86.8283 88.8664 85.94 88.3163 85.0137 87.9269C84.1762 87.5926 83.3301 87.8674 82.5729 88.1972C83.5963 89.3226 83.9133 90.9936 83.6761 92.5672C83.5322 92.601 83.2784 92.8124 83.1514 92.9182C83.1262 92.1652 83.1729 91.3953 83.1477 90.6423C82.9617 89.8512 82.8138 88.8994 81.8494 88.6708C81.054 89.1613 80.2178 89.5856 79.3407 89.9436C79.51 89.3725 79.9627 89.0385 80.4154 88.7044C79.5059 88.3869 78.6727 87.748 77.6533 87.6082C75.9528 87.4767 74.6285 88.6228 73.169 89.1936C72.4541 89.0581 71.5573 89.1171 71.0287 88.4825Z" fill="black"/>
<path d="M67.1742 93.7145C66.9627 93.4606 66.7456 93.1828 66.5229 92.881C66.6753 92.2381 66.8446 91.667 66.8363 90.986C65.804 91.7599 65.6513 93.693 67.0599 94.1967C67.0261 94.0529 67.1192 93.8033 67.1742 93.7145Z" fill="black"/>
<path d="M71.5533 89.4217C71.769 89.371 72.2893 89.3245 72.522 89.3457C72.8392 89.7265 73.0294 90.213 73.2197 90.6995C72.4879 90.4921 72.0481 89.9125 71.5533 89.4217Z" fill="black"/>
<path d="M113.042 69.9543C113.761 69.7853 114.455 70.1534 115.191 70.0563C115.948 69.7265 116.6 69.2698 117.374 69.0119C118.69 68.4749 120.221 69.1774 121.503 68.4967C122.514 67.9554 123.559 67.558 124.726 67.3594C125.945 67.3766 127.51 66.9327 128.301 68.0369C127.205 68.2186 126.063 67.88 124.984 68.1336C123.584 68.3109 122.48 69.1018 121.236 69.6218C121.617 70.5948 121.583 71.7412 121.138 72.7564C121.087 72.5406 120.931 72.1979 120.808 71.9991C120.889 71.373 120.826 70.7808 120.834 70.1717C120.817 70.0997 120.623 69.9178 120.589 69.774C119.531 69.7949 118.495 69.5832 117.416 69.8368C116.464 69.9847 115.682 70.8517 114.713 70.9276C114.961 71.1223 115.233 71.3113 115.529 71.4946C115.656 71.819 115.801 72.1137 115.965 72.3788C115.838 72.4846 115.622 72.5353 115.495 72.641C115.144 72.1164 114.755 71.7525 114.349 71.3167C114.459 71.1391 114.563 70.9375 114.662 70.7119C114.015 70.864 113.393 70.479 113.042 69.9543Z" fill="black"/>
<path d="M110.436 73.0714C110.91 72.5046 111.495 72.0888 112.192 71.8238C111.84 72.5894 111.189 73.0461 110.715 73.6129C110.258 74.2515 109.907 75.0171 109.15 75.3469C109.213 74.649 109.615 74.0991 110.034 73.6212C110.072 73.4605 110.309 73.1771 110.436 73.0714Z" fill="black"/>
<path d="M153.532 53.9851C155.187 52.3061 157.124 50.864 159.515 50.378C160.035 50.3316 160.631 49.9637 161.126 50.4545C160.187 50.9788 159.129 50.9997 158.118 51.541C156.045 52.4078 153.947 53.8118 153.02 56.0028C152.449 57.1237 152.199 58.3208 151.877 59.5348C151.75 59.6405 151.496 59.8519 151.298 59.9746C151.167 57.8045 152.183 55.6684 153.532 53.9851Z" fill="black"/>
<path d="M104.496 77.5035C104.987 77.0086 105.494 76.5857 106.002 76.1628C106.091 76.2178 106.412 76.294 106.501 76.3491C104.217 78.2522 103.298 81.1243 102.418 83.8356C102.172 84.7281 101.588 85.4725 101.431 86.42C101.148 88.7635 100.614 91.0138 100.009 93.2811C99.6364 93.4192 99.2698 93.5813 98.9088 93.7673C98.579 93.0101 99.7635 92.8834 99.7551 92.2024C100.107 90.1466 100.691 88.112 100.865 85.9462C101.783 83.0741 102.74 80.0412 104.496 77.5035Z" fill="black"/>
<path d="M61.0859 98.4847C61.5005 98.3114 62.0208 98.265 62.2661 98.6627C62.8117 99.3692 63.3572 100.076 63.7039 100.905C65.0365 100.44 66.5594 100.461 67.7524 99.7255C68.3956 98.5878 66.8518 97.5087 67.567 96.3541C68.214 97.4921 68.6959 98.8966 68.2473 100.216C66.7327 100.876 65.0067 101.282 63.3188 101.527C62.9552 100.626 62.4478 99.7583 61.7584 99.0856C61.5639 98.9036 61.2636 98.5948 61.0859 98.4847Z" fill="black"/>
<path d="M57.6206 102.79C57.7435 101.699 58.099 100.629 58.8987 99.8336C59.2328 100.286 58.8858 100.747 58.6827 101.175C58.4245 101.691 58.3271 102.245 58.2297 102.799C58.4876 103.573 59.2406 103.548 59.9259 103.235C59.7861 104.254 58.7667 104.115 58.1068 103.89C57.9208 103.529 57.7587 103.163 57.6206 102.79Z" fill="black"/>
<path d="M65.0116 97.1066C65.6801 96.7218 66.3485 96.3369 67.1227 96.0791C66.7333 97.0054 65.7603 97.3859 64.9311 97.7326C64.9692 97.5719 64.9735 97.2673 65.0116 97.1066Z" fill="black"/>
<path d="M109.288 78.1983C109.403 77.7161 109.306 76.98 109.847 76.7009C110.469 77.086 109.775 78.008 109.288 78.1983Z" fill="black"/>
<path d="M69.2547 96.1092C70.8623 95.2 72.5926 94.4897 74.234 93.7244C74.7444 93.9585 75.2125 94.2279 75.6383 94.5326C76.5222 95.3873 77.1945 97.2783 75.8576 98.0479C75.8323 97.2949 76.0567 96.6351 76.0314 95.8821C75.7862 95.4844 75.414 95.1925 75.0968 94.8117C74.9191 94.7017 74.6189 94.3928 74.4412 94.2828C72.7998 95.0481 70.9299 95.4877 69.4618 96.6676C69.3475 97.1498 69.3051 97.6151 69.0851 97.9704C68.8905 97.7885 68.6284 97.3189 68.5057 97.12C68.7258 96.7647 68.9754 96.4278 69.2547 96.1092Z" fill="black"/>
<path d="M107.3 78.1343C108.214 78.1472 109.491 79.0612 109.119 80.0594C108.446 79.4586 107.774 78.8578 107.3 78.1343Z" fill="black"/>
<path d="M132.565 66.8068C133.504 66.2824 134.202 67.6362 135.154 67.4884C136.804 67.4041 138.597 67.286 140.162 68.1323C141.761 69.1225 143.999 69.2795 145.014 71.0141C145.238 71.6444 145.944 72.3891 145.238 72.9346C144.587 70.8109 142.484 69.9391 140.594 69.3211C141.042 70.5818 141.253 72.1258 140.643 73.4075C140.285 73.3905 139.922 73.3495 139.552 73.2846C139.751 73.1619 140.221 72.8998 140.419 72.7771C140.475 71.3981 140.352 69.9091 139.545 68.7329C138.246 68.0516 136.74 68.1021 135.323 68.2075C134.21 68.3173 133.271 67.5514 132.565 66.8068Z" fill="black"/>
<path d="M159.657 55.505C159.294 54.6039 160.182 53.8638 160.868 53.5509C160.999 54.4308 160.042 54.8832 159.657 55.505Z" fill="black"/>
<path d="M165.648 51.2888C166.033 50.667 166.905 51.1452 167.429 50.7942C168.745 50.2573 169.887 49.3057 171.338 49.3441C172.806 49.4543 174.231 50.0299 175.644 50.229C175.86 50.1783 176.165 50.1826 176.325 50.2207C177.115 50.1363 177.881 50.0575 178.622 49.9843C181.308 50.1117 183.728 51.3643 186.113 52.4731C187.484 53.1375 189.041 53.3028 190.411 53.9673C192.154 54.9236 193.075 56.9078 194.471 58.3251C195.139 59.2305 196.188 59.8187 196.928 60.7072C195.922 60.9439 195.236 59.9666 194.509 59.4546C192.969 58.071 191.904 56.1207 190.254 54.9148C188.689 54.0684 186.883 53.81 185.301 52.8918C183.292 51.7704 181.173 50.8266 178.885 50.4539C177.467 50.5594 175.991 51.0582 174.544 50.7153C173.491 50.4317 172.383 50.2368 171.275 50.042C169.269 49.9063 167.657 52.4102 165.648 51.2888Z" fill="black"/>
<path d="M113.527 77.5053C114.352 76.173 115.427 74.9338 116.992 74.4899C117.91 74.1982 118.896 74.1942 119.848 74.0463C119.882 74.1902 119.861 74.4228 119.822 74.5836C118.655 74.7821 117.47 74.9088 116.337 75.2512C115.558 75.8137 114.974 76.5581 114.373 77.2305C114.021 77.6676 113.727 78.1413 113.493 78.6517C113.979 79.7516 115.062 80.4837 116.077 80.928C117.82 80.5942 119.529 80.1165 121.082 79.2962C121.467 78.6745 121.835 77.9808 121.954 77.194C121.476 76.7751 120.998 76.3562 120.41 76.115C120.55 76.3858 120.757 76.9442 120.896 77.2149C120.736 77.1768 120.414 77.1006 120.253 77.0625C120.152 76.631 120.074 76.1939 120.021 75.7511C121.066 75.3537 121.95 76.2084 122.44 77.0037C122.694 78.0825 121.911 78.9495 121.505 79.8039C119.842 80.8019 117.833 80.9707 116.086 81.6091C114.766 81.1604 113.506 80.3184 113.024 78.9139C113.062 78.7531 113.176 78.2709 113.214 78.1102C112.927 78.1778 112.423 78.2961 112.152 78.4357C112.144 78.1847 112.136 77.9337 112.127 77.6827C111.949 77.5727 111.7 77.4796 111.522 77.3696C112.191 76.9847 112.867 77.281 113.527 77.5053Z" fill="black"/>
<path d="M52.9581 106.846C53.3982 106.136 53.7707 105.137 54.6337 104.934C54.6675 105.078 54.7901 105.277 54.807 105.349C53.161 107.709 52.1706 110.598 52.5422 113.471C52.6394 114.207 52.7365 114.943 52.6729 115.641C52.4953 115.531 52.2838 115.277 52.1062 115.167C51.4469 112.362 51.7393 109.409 52.9581 106.846Z" fill="black"/>
<path d="M76.9626 94.6765C77.1657 94.2493 77.5465 93.9321 78.0668 93.8856C79.3275 93.4375 80.7446 93.332 81.9924 93.7976C82.3096 94.1784 82.6818 94.4703 82.8001 94.9737C83.1045 96.2682 83.8234 97.3894 84.2546 98.5781C84.356 99.0096 84.1529 99.4368 83.7552 99.6821C83.7187 98.8812 83.5257 98.1677 83.1761 97.5415C82.6518 96.6023 82.3982 95.5236 82.0727 94.4618C80.4188 93.5604 78.6505 94.4314 76.9626 94.6765Z" fill="black"/>
<path d="M121.256 74.5499C121.629 73.5517 122.373 72.8454 123.363 72.5368C123.397 72.6806 123.321 73.0021 123.3 73.2347C122.758 73.5138 122.287 73.8775 121.886 74.3258C122.047 75.6541 123.616 76.1959 123.633 77.558C122.495 76.9148 121.759 75.7218 121.256 74.5499Z" fill="black"/>
<path d="M165.089 52.7861C166.147 52.7652 166.219 54.0385 166.62 54.7789C167.015 54.7366 167.421 54.7424 167.839 54.796C167.403 55.202 166.844 55.4092 166.658 55.9083C166.396 56.7289 166.941 57.4355 167.254 58.1208C167.813 57.9137 168.443 57.6896 169.086 57.842C169.386 58.1509 168.878 58.5738 168.557 58.4976C167.284 58.5692 166.078 58.9285 164.957 59.6474C164.923 59.5036 164.784 59.2329 164.75 59.089C165.339 58.7987 165.929 58.5083 166.518 58.218C166.298 57.7131 166.102 57.2026 165.93 56.6865C165.956 56.1493 165.948 55.4682 166.561 55.1723C165.69 54.6941 165.652 53.5646 165.089 52.7861Z" fill="black"/>
<path d="M125.631 71.852C126.155 71.501 126.688 71.831 127.116 72.0341C127.551 72.9183 127.987 73.8025 128.35 74.7036C128.329 74.9363 128.359 75.3847 128.32 75.5454C128.265 75.6342 128.05 75.685 127.978 75.7019C127.707 74.5512 127.365 73.4175 126.625 72.529C126.269 72.3089 125.938 72.0833 125.631 71.852Z" fill="black"/>
<path d="M131.397 69.5858C132.518 70.1571 132.408 71.6249 133.021 72.6191C133.681 72.8435 134.429 73.1228 135.144 73.2583C136.396 73.4193 137.479 72.8612 138.698 72.8783C137.932 73.8173 136.519 73.6182 135.423 73.7998C134.476 73.6431 133.456 73.5033 132.568 72.9532C131.955 71.959 131.596 70.7533 131.397 69.5858Z" fill="black"/>
<path d="M68.5817 99.3788C69.3303 99.6582 69.9902 99.8825 70.7601 99.9292C72.4818 99.828 73.9668 98.72 75.5702 98.1154C74.8295 99.8074 72.6382 100.171 70.9673 100.488C70.1086 100.386 68.9072 100.441 68.5817 99.3788Z" fill="black"/>
<path d="M157.91 57.4338C158.316 57.8696 158.307 58.4787 158.282 59.0159C158.142 60.0354 157.858 61.0886 157.38 61.96C157.038 60.8262 157.77 59.7434 157.732 58.614C157.738 58.2079 157.797 57.8145 157.91 57.4338Z" fill="black"/>
<path d="M103.022 86.7292C102.62 85.9888 102.472 85.037 102.895 84.2545C103.208 84.0798 103.569 83.8937 103.978 83.6964C104.012 83.8402 104.152 84.111 104.186 84.2548C103.861 84.3816 103.543 84.5325 103.229 84.7072C103.224 85.1133 103.242 85.5138 103.284 85.9086C103.445 85.9467 103.805 85.8622 104.037 85.8834C104.122 86.243 103.885 86.5263 103.809 86.8478C103.648 86.8097 103.183 86.7673 103.022 86.7292Z" fill="black"/>
<path d="M148.547 64.4157C149.279 63.3329 150.155 62.2163 151.331 61.4086C151.437 61.5355 151.614 61.6455 151.775 61.6836C150.231 63.185 148.72 64.8302 147.992 66.8986C146.964 68.6582 146.219 70.6547 146.316 72.681L145.935 72.9981C145.868 72.7105 145.804 72.1182 145.737 71.8306C145.974 70.257 146.355 68.6496 147.108 67.3342C147.641 66.374 147.908 65.2489 148.547 64.4157Z" fill="black"/>
<path d="M91.6843 90.1533C92.8857 90.0985 94.1719 89.1131 95.3435 89.9002C96.4981 90.6153 97.6147 91.4912 98.3505 92.6842C98.7015 93.2088 97.9655 93.306 97.7371 92.9802C96.6755 92.0155 95.6521 90.8901 94.2985 90.2976C93.5074 90.4836 92.1156 91.342 91.6843 90.1533Z" fill="black"/>
<path d="M169.082 54.2759C170.432 53.8828 171.756 54.0269 173.063 54.0991C173.85 54.2177 174.73 54.0867 175.368 54.5437C174.324 54.9411 175.021 56.2949 175.063 57.1198C175.122 58.0166 174.716 58.871 173.714 58.8031C173.68 58.6593 173.684 58.3547 173.722 58.194L174.204 58.3083C174.281 57.9868 174.381 57.6597 174.505 57.327C174.391 56.519 174.26 55.6391 174.074 54.848C173.253 54.5856 172.373 54.7165 171.515 54.6148C170.762 54.6401 170.044 54.7076 169.362 54.8174C169.328 54.6736 169.188 54.4029 169.082 54.2759Z" fill="black"/>
<path d="M89.3361 92.7544C89.3871 91.6799 90.9564 92.2217 91.7263 92.2684C91.9672 92.9706 91.8655 93.8293 91.8188 94.5992C91.7807 94.76 91.8484 95.0476 91.8272 95.2803C91.8215 95.6864 91.7086 96.0671 91.4885 96.4224C91.4378 96.2066 91.2645 95.792 91.1968 95.5044C91.2349 95.3436 91.2392 95.0391 91.2604 94.8064C91.2985 94.6457 91.3028 94.3411 91.2521 94.1253C91.317 93.7559 91.3876 93.4105 91.4638 93.089C90.9183 92.3824 90.0172 92.7461 89.3361 92.7544Z" fill="black"/>
<path d="M106.728 84.4161C108.336 83.5069 109.876 82.3101 111.847 82.302C110.328 83.2662 108.53 83.6889 107.151 84.9238C106.944 85.6556 107.003 86.5524 106.563 87.2629C106.055 86.3957 106.411 85.3255 106.728 84.4161Z" fill="black"/>
<path d="M162.584 57.6248C163.604 57.7646 164.238 58.5262 164.602 59.4273C164.238 59.8164 163.857 60.1336 163.476 60.4507C163.341 59.8754 163.722 59.5582 163.853 59.1479C163.485 58.5514 162.952 58.2213 162.584 57.6248Z" fill="black"/>
<path d="M62.1332 106.814C62.0954 105.685 63.2165 104.966 64.1007 104.53C64.4138 104.355 64.7 104.389 64.9594 104.632C63.8594 105.118 63.0217 106.074 62.1332 106.814Z" fill="black"/>
<path d="M153.932 63.7568C153.831 62.0351 155.528 61.1809 157.038 60.8259C156.31 61.6041 155.105 61.9634 154.571 62.9236C154.165 63.778 155.425 64.62 154.681 65.3263C154.402 64.7848 154.152 64.2616 153.932 63.7568Z" fill="black"/>
<path d="M67.8024 103.812C67.8405 103.651 68.0775 103.368 68.1325 103.279C68.7795 104.417 69.2445 105.75 69.2443 107.04C69.3457 107.471 69.0538 107.843 68.728 108.072C68.7494 106.549 68.4832 105.094 67.8024 103.812Z" fill="black"/>
<path d="M58.5879 109.165C58.6641 108.844 58.722 108.552 58.7615 108.29C59.3199 108.083 59.8826 107.571 60.3394 108.222C59.9304 108.42 59.5214 108.617 59.1125 108.814C59.4254 109.5 59.7326 110.161 60.0343 110.799C61.0454 110.257 61.7393 109.335 62.2556 108.303C62.6404 108.972 62.2553 109.593 61.9253 110.126C61.3245 110.799 60.5122 111.217 59.683 111.564C59.2644 110.752 58.9177 109.923 58.5879 109.165Z" fill="black"/>
<path d="M124.712 77.3045C125.308 76.9366 125.939 76.7125 126.624 76.3996C127.072 76.3701 127.504 76.2687 127.935 76.1672C127.969 76.311 127.965 76.6156 127.927 76.7764C126.814 76.8861 125.82 77.4993 124.712 77.3045Z" fill="black"/>
<path d="M176.405 53.4652C175.987 52.6529 177.167 52.8308 177.632 52.8732C178.723 52.9961 180.085 52.9794 180.716 54.0456C179.286 53.7745 177.839 53.4316 176.405 53.4652Z" fill="black"/>
<path d="M77.2194 100.612C77.9469 101.124 78.7082 101.779 79.6431 101.56C80.3242 101.551 81.0857 100.917 81.5594 101.64C80.3537 102 79.0042 102.393 77.8114 101.838C77.6549 101.496 77.3759 100.954 77.2194 100.612Z" fill="black"/>
<path d="M121.771 79.9688C122.241 79.7067 122.744 79.5883 123.298 79.6857C123.632 80.1384 124.609 80.7435 123.937 81.4329C123.797 81.1621 123.535 80.6925 123.412 80.4937C123.307 80.3668 122.985 80.2906 122.879 80.1636C122.465 80.337 121.961 80.4553 121.771 79.9688Z" fill="black"/>
<path d="M158.048 62.8653C158.949 62.5017 159.901 62.3539 160.819 62.0622C160.785 63.2085 159.229 63.0432 158.454 63.3011C158.349 63.1742 158.154 62.9923 158.048 62.8653Z" fill="black"/>
<path d="M70.4628 104.477C70.6617 104.354 71.0044 104.197 71.2201 104.147C71.3427 104.346 71.588 104.743 71.7275 105.014C71.4949 104.993 71.1903 104.989 71.0296 104.95C71.2156 105.742 71.3127 106.478 71.3548 107.302C71.5156 107.341 71.8921 107.328 72.0528 107.366C72.6281 107.231 73.3728 106.525 73.7745 107.265C73.0172 107.595 72.078 108.119 71.2955 107.696C70.5554 106.807 70.6445 105.572 70.4628 104.477Z" fill="black"/>
<path d="M76.445 102.16C76.837 102.32 77.0597 102.622 77.1132 103.065C77.333 104 77.4427 105.112 77.0534 106.039C76.2467 106.481 75.4528 106.87 74.6716 107.206C74.5658 107.079 74.4982 106.791 74.4644 106.647C75.1497 106.334 75.9239 106.077 76.5585 105.548C76.7998 104.96 76.6645 104.385 76.6731 103.775C76.5491 103.248 76.4731 102.709 76.445 102.16Z" fill="black"/>
<path d="M107.04 87.6818C108.047 87.4451 108.66 88.4393 109.261 89.057C109.032 89.1613 108.817 89.212 108.614 89.2092C108.102 88.6465 107.535 88.1726 107.04 87.6818Z" fill="black"/>
<path d="M171.01 59.8942C170.786 59.2638 170.473 58.5785 170.249 57.9481C171.002 57.9229 172.098 57.7412 172.571 58.4647C172.068 58.583 171.514 58.4856 171.032 58.3713C171.433 59.1117 171.674 59.8139 171.716 60.6388C171.619 61.1929 171.716 61.929 171.103 62.225C171.078 61.472 171.124 60.7021 171.01 59.8942Z" fill="black"/>
<path d="M63 108.887C63.6472 108.735 64.3071 108.959 65.0051 109.023C65.6988 108.961 66.4166 108.894 67.1583 108.82C67.1921 108.964 67.2428 109.18 67.2047 109.341C65.7876 109.446 64.1673 109.979 63 108.887Z" fill="black"/>
<path d="M152.113 66.9926C153.522 66.2061 155.121 65.906 156.665 65.6948C157.041 65.6822 157.363 65.7584 157.718 65.9785C158.094 65.9658 158.526 65.8644 158.699 66.279C159.147 67.5397 160.42 68.7582 159.989 70.1499C159.291 68.7961 158.538 67.5311 157.857 66.2492C156.085 66.1346 154.287 66.5573 152.663 67.3946C153.018 68.9048 153.5 70.3093 153.998 71.7857C155.255 71.6422 156.376 70.9232 157.721 70.8347C157.755 70.9785 157.734 71.2112 157.696 71.3719C156.401 71.6762 155.069 72.1413 153.774 72.4456C153.245 71.811 153.026 70.876 152.768 70.1019C152.459 69.1119 152.134 68.0501 152.113 66.9926Z" fill="black"/>
<path d="M115.307 84.7519C115.434 84.6462 115.544 84.4685 115.671 84.3628C116.195 85.302 115.607 86.351 115.112 87.1504C114.896 87.2011 114.481 87.3744 114.283 87.4971C114.689 86.6427 115.239 85.7545 115.307 84.7519Z" fill="black"/>
<path d="M117.718 84.0333C118.113 83.991 118.495 84.0024 118.865 84.0673C118.915 84.2831 119.089 84.6977 119.139 84.9134C118.979 84.8753 118.674 84.871 118.585 84.816C118.278 84.5847 117.989 84.3238 117.718 84.0333Z" fill="black"/>
<path d="M128.226 79.6655C128.425 79.5429 128.895 79.2807 129.094 79.1581C129.534 79.3076 129.955 79.4868 130.358 79.6956C131.598 80.7703 132.071 82.7839 130.853 84.057L130.408 83.7819C131.229 82.7542 131.162 81.1763 130.117 80.2835C129.694 79.7758 128.869 79.8179 128.226 79.6655Z" fill="black"/>
<path d="M158.915 66.2283C159.259 65.5403 159.716 64.9016 160.286 64.3123C160.472 65.1034 159.846 66.3131 158.915 66.2283Z" fill="black"/>
<path d="M92.1018 97.4165C92.4276 97.1881 93.0155 97.4294 92.8843 97.8397C92.715 98.4107 91.611 97.9113 92.1018 97.4165Z" fill="black"/>
<path d="M179.886 58.2629C180.575 57.6454 180.554 56.5879 180.728 55.7123C180.962 56.062 181.172 56.4174 181.358 56.7784C180.901 58.7072 178.934 59.7009 177.174 59.9629C176.754 60.1122 176.402 60.0177 176.12 59.6792C177.432 59.4468 178.693 58.9987 179.886 58.2629Z" fill="black"/>
<path d="M83.3526 102.812C83.4288 102.491 83.3105 101.988 83.7589 101.958C84.4144 102.487 83.9193 103.286 83.6781 103.874C83.2761 104.424 82.0281 105.249 81.7364 104.331C82.316 103.891 83.2509 103.671 83.3526 102.812Z" fill="black"/>
<path d="M112.658 88.3342C112.785 88.2285 113.166 87.9113 113.364 87.7887C113.17 88.8969 112.226 89.7259 112.353 90.9103C113.207 91.3166 114.112 91.9386 115.064 91.7908C116.075 91.2495 117.112 90.171 116.896 88.9315C117.04 88.8977 117.239 88.7751 117.366 88.6694C117.417 88.8851 117.59 89.2997 117.696 89.4266C117.298 90.9621 115.991 92.1801 114.463 92.4632C113.393 92.1077 111.963 91.8367 111.803 90.5084C111.85 89.7385 112.201 88.9729 112.658 88.3342Z" fill="black"/>
<path d="M167.173 62.6175C167.317 62.5836 167.588 62.4441 167.731 62.4103C167.989 63.1845 167.549 63.895 167.181 64.5887C165.709 66.0732 163.847 67.1938 161.783 67.4514C161.199 67.3357 160.665 67.1072 160.18 66.7658C161.203 66.6011 162.29 67.0285 163.23 66.5042C164.888 65.8108 167.215 64.7325 167.173 62.6175Z" fill="black"/>
<path d="M98.2907 95.658C98.3458 95.5692 98.5658 95.2139 98.6039 95.0531C99.3437 97.2318 100.084 99.4105 101.437 101.293C101.754 101.674 101.872 102.177 101.902 102.626C101.745 104.864 103.132 106.89 104.38 108.646C103.462 108.938 103.047 107.821 102.535 107.258C101.444 105.845 101.271 104.14 100.811 102.503C99.91 100.286 98.2902 98.2384 98.2907 95.658Z" fill="black"/>
<path d="M121.267 85.2481C121.402 84.9633 121.514 84.6841 121.601 84.4106C122.058 84.202 122.515 83.9934 122.972 83.7848C123.078 83.9117 123.128 84.1275 123.234 84.2544C122.56 84.6152 121.904 84.9465 121.267 85.2481Z" fill="black"/>
<path d="M134.708 78.8252C134.851 78.7913 135.122 78.6518 135.266 78.618C135.562 79.2314 135.803 79.9337 136.116 80.619C136.061 80.7079 135.807 80.9193 135.769 81.0801C135.367 80.3397 135.037 79.5824 134.708 78.8252Z" fill="black"/>
<path d="M145.254 74.2966C145.314 73.9032 146.282 73.8273 146.113 74.3983C145.999 74.8805 145.085 74.8677 145.254 74.2966Z" fill="black"/>
<path d="M125.937 84.4537C125.975 84.293 126.157 84.0984 126.267 83.9208C127.016 84.2001 127.803 84.3187 128.331 84.9534C128.139 84.9984 127.953 85.0675 127.773 85.1605C127.168 84.8474 126.525 84.695 125.937 84.4537Z" fill="black"/>
<path d="M74.8614 108.982C76.1559 108.678 76.219 110.561 76.6545 111.445C76.6121 111.91 76.4978 112.392 76.2946 112.82C75.9015 111.47 75.5972 110.176 74.8614 108.982Z" fill="black"/>
<path d="M125.823 84.9358C126.068 85.3335 126.33 85.8031 126.521 86.2896C125.81 88.43 123.576 89.2586 121.702 90.0027C120.809 89.7572 120.45 88.5515 120.873 87.769C121.163 88.3585 121.454 88.948 121.744 89.5374C123.149 89.0555 124.397 88.2308 125.433 87.1524C125.979 86.5687 125.759 85.6338 125.823 84.9358Z" fill="black"/>
<path d="M51.9778 123.014C52.2445 121.888 51.8895 120.378 52.9938 119.587C53.0147 120.645 52.7141 121.626 52.6632 122.701C52.7222 123.598 52.7093 124.511 52.8572 125.463C53.2882 127.942 54.9248 130.062 55.8423 132.35C56.4807 134.098 57.9314 135.426 59.6614 136.006C59.1282 136.966 58.0116 136.09 57.373 135.633C55.1736 134.025 54.5862 131.204 53.0934 129.05C52.4338 127.536 51.9899 125.971 51.9945 124.376C51.9889 123.922 51.9834 123.468 51.9778 123.014Z" fill="black"/>
<path d="M95.9843 100.374C96.2043 100.019 96.4539 99.682 96.7332 99.3634C96.7839 99.5791 96.9573 99.9937 97.008 100.209C95.8657 101.161 94.9348 102.366 93.4922 103.009C94.0635 101.888 95.1127 101.186 95.9843 100.374Z" fill="black"/>
<path d="M175.104 63.1055C175.68 62.9703 176.284 63.2834 176.8 63.5416C177.009 63.9985 177.247 64.4737 177.515 64.9673C177.405 65.1449 177.185 65.5002 177.075 65.6779C176.926 65.2576 176.8 64.8318 176.699 64.4003C176.593 64.2734 176.365 63.9476 176.259 63.8206C175.76 63.6344 175.35 63.5032 175.104 63.1055Z" fill="black"/>
<path d="M104.699 98.7051C104.445 97.6264 104.983 96.3616 106.116 96.0192C106.43 95.8444 106.697 95.9079 106.92 96.2097C106.18 96.6115 105.579 97.2839 105.405 98.1595C105.541 98.7349 106.319 99.4626 105.862 100.101C105.109 100.127 104.906 99.2635 104.699 98.7051Z" fill="black"/>
<path d="M80.2974 108.539C81.2492 108.392 82.1503 108.028 82.9457 107.537C83.2204 108.384 82.1755 108.781 81.5452 109.005C81.0587 109.195 80.3607 109.132 80.2974 108.539Z" fill="black"/>
<path d="M95.8614 102.756C95.8191 102.361 95.8545 101.973 95.9673 101.593C96.1534 101.954 96.3395 102.315 96.5255 102.676C96.3872 103.164 96.225 103.657 96.0388 104.156C95.1715 104.664 94.207 104.435 93.3314 104.261C93.2257 104.134 93.175 103.919 93.1412 103.775C93.9322 103.589 94.7528 103.851 95.5608 103.737C95.637 103.416 95.7372 103.089 95.8614 102.756Z" fill="black"/>
<path d="M168.335 67.8842C169.334 66.9665 170.869 66.0742 172.13 66.9163C172.523 66.9756 172.447 67.2971 172.371 67.6185C171.415 66.7808 169.96 67.047 169.177 67.914C168.305 68.726 167.269 69.8045 167.268 71.0947C167.285 71.5967 167.189 72.0493 166.981 72.4525C166.16 70.8999 167.243 69.0515 168.335 67.8842Z" fill="black"/>
<path d="M66.1711 116.566C66.315 116.532 66.6195 116.536 66.7803 116.574C66.9874 117.133 66.9958 117.814 66.5769 118.292C65.9253 118.748 64.7154 119.412 64.1741 118.401C64.7495 118.266 65.4474 118.329 65.9551 117.907C66.1583 117.479 66.1287 117.031 66.1711 116.566Z" fill="black"/>
<path d="M135.112 85.7118C135.59 84.8405 136.14 83.9523 136.779 83.1191C137.194 84.2359 136.102 85.4032 135.112 85.7118Z" fill="black"/>
<path d="M184.487 61.0517C185.549 60.7262 186.471 61.4201 187.343 61.8983C188.121 62.626 188.734 63.6202 188.378 64.6904C187.845 65.6505 186.711 65.993 185.984 66.7712C185.476 67.1941 185.019 67.8327 184.266 67.858C183.657 67.8494 183.107 67.4474 182.591 67.1893C182.007 66.6435 181.229 65.9157 181.957 65.1375C182.096 65.4083 182.287 65.8948 182.354 66.1824C182.91 66.6084 183.484 67.0047 184.076 67.3715C185.214 66.7245 186.14 65.8236 187.262 65.1047C187.748 64.9145 187.829 64.2884 188.032 63.8612C187.736 63.2478 187.296 62.6682 186.674 62.2831C186.019 61.7542 185.016 61.6863 184.487 61.0517Z" fill="black"/>
<path d="M71.4128 114.65C72.1489 114.553 72.8681 114.384 73.5534 114.071C73.7311 114.181 73.9975 114.346 74.0864 114.401C73.5928 114.669 73.0752 114.943 72.5337 115.222C72.1305 115.013 71.7569 114.823 71.4128 114.65Z" fill="black"/>
<path d="M146.865 79.534C146.848 79.4621 146.924 79.1406 146.979 79.0518C148.079 79.8557 148.311 81.1672 148.294 82.3854C148.264 84.5174 148.467 86.6706 148.796 88.7181C149.045 90.1014 148.829 91.4423 149.151 92.8087C149.362 94.3528 150.618 95.4994 151.624 96.5529C151.569 96.6417 151.421 96.9801 151.383 97.1409C150.089 96.155 148.837 94.7038 148.592 93.0159C148.165 91.5226 148.242 89.9109 147.815 88.4176C147.24 85.9724 147.562 83.4682 147.524 81.0486C147.533 80.4394 147.127 80.0036 146.865 79.534Z" fill="black"/>
<path d="M30.4223 135.594C33.8914 133.564 37.6397 132.076 41.2145 130.173C43.1311 128.964 45.1871 128.025 47.2601 127.158C47.277 127.23 47.2727 127.535 47.3065 127.679C44.5015 129.628 41.206 130.782 38.2783 132.533C35.0461 134.279 31.6575 135.683 28.4803 137.341C26.4369 138.656 24.2201 139.557 22.054 140.673C20.4676 141.349 19.1264 142.424 17.5399 143.1C15.5389 143.95 13.7831 145.197 11.7145 145.76C11.6806 145.616 11.7019 145.383 11.74 145.222C13.6903 144.157 15.869 143.417 17.6797 142.081C19.3424 141.083 21.1784 140.499 22.7691 139.518C25.2103 137.958 27.9474 137.011 30.4223 135.594Z" fill="black"/>
<path d="M159.476 74.748C159.518 74.2827 159.772 74.0712 160.115 73.9148C161.206 74.0377 162.581 74.3975 162.813 75.7089C162.758 75.7978 162.61 76.1361 162.5 76.3138C162.314 75.9528 162.128 75.5918 161.942 75.2308C161.215 74.7188 160.377 74.3844 159.476 74.748Z" fill="black"/>
<path d="M48.8125 127.628C48.5208 126.71 49.8829 126.694 50.3906 126.271C50.6992 127.261 49.409 127.26 48.8125 127.628Z" fill="black"/>
<path d="M175.416 67.6616C175.577 67.6997 175.971 67.759 176.131 67.7971C176.567 68.6813 177.269 69.7305 176.397 70.5425C176.304 69.5019 175.852 68.5458 175.416 67.6616Z" fill="black"/>
<path d="M159.59 75.5559C159.56 75.1075 160.457 75.0485 160.288 75.6195C160.262 76.1567 159.349 76.1439 159.59 75.5559Z" fill="black"/>
<path d="M10.3989 146.297C11.8793 146.783 12.302 148.581 13.1097 149.757C14.0613 150.9 14.4163 152.41 15.3509 153.48C15.8965 154.187 16.514 154.877 17.0595 155.583C16.9157 155.617 16.8057 155.795 16.6618 155.828C15.7736 155.278 15.1054 154.373 14.543 153.594C13.8114 152.097 12.8261 150.811 12.1665 149.296C11.6252 148.285 10.8132 147.413 10.3989 146.297Z" fill="black"/>
<path d="M124.544 93.0532C125.749 92.6939 127.044 92.3896 128.25 92.0303C128.592 91.8739 129.003 92.0051 129.396 92.0644C127.843 92.8847 126.172 93.2016 124.518 93.5905C124.484 93.4466 124.578 93.1971 124.544 93.0532Z" fill="black"/>
<path d="M87.9279 111.299C88.131 110.872 88.3004 110.301 88.8757 110.166C88.8333 110.631 88.7909 111.096 88.7485 111.562C89.2264 111.98 89.7425 112.239 90.2754 112.569C89.7127 113.08 89.019 112.712 88.4142 112.399C88.2761 112.027 88.114 111.66 87.9279 111.299Z" fill="black"/>
<path d="M91.2616 109.984C91.0882 109.57 90.9868 109.138 91.4395 108.804C91.6255 109.165 91.8116 109.526 91.9976 109.887C91.8114 110.386 91.6435 110.856 91.494 111.296C91.2782 111.346 90.8636 111.52 90.6479 111.57C90.8341 111.071 91.0753 110.483 91.2616 109.984Z" fill="black"/>
<path d="M132.785 89.3706C134.075 89.3708 133.013 90.9865 132.277 91.0837C131.858 90.2714 133.203 90.1828 132.785 89.3706Z" fill="black"/>
<path d="M169.823 72.9228C170.775 72.7749 171.71 72.5551 172.666 72.1027C172.848 73.1983 171.236 73.1219 170.517 73.2909C170.356 73.2528 170.001 73.0328 169.823 72.9228Z" fill="black"/>
<path d="M13.5289 147.989C13.6559 147.884 13.8209 147.617 13.9309 147.44C15.1487 150.037 16.7091 152.478 18.6503 154.602C20.3933 153.838 22.0785 152.936 23.7059 151.896C25.58 151.152 27.1582 149.794 29.0323 149.05C30.6737 148.285 32.0699 147.122 33.8002 146.411C35.9451 145.528 37.8278 144.174 39.9557 143.219C40.3055 142.985 40.5973 143.043 40.8313 143.392C39.0079 144.352 37.3072 145.511 35.45 146.327C33.1063 147.333 31.0416 148.881 28.681 149.816C27.1382 150.785 25.5489 151.665 23.9131 152.454C22.4112 153.49 20.7697 154.256 19.0563 155.038C19.1621 155.165 19.3185 155.508 19.4242 155.634C18.6332 155.82 18.1426 155.025 17.7197 154.517C16.028 152.487 14.4802 150.422 13.5289 147.989Z" fill="black"/>
<path d="M115.134 100.805C115.676 100.526 116.223 100.271 116.776 100.04C117.017 100.742 116.192 100.784 115.811 101.102C115.341 101.364 115.35 102.045 115.235 102.527C115.197 102.688 115.21 103.064 115.189 103.297C115.294 103.424 115.379 103.784 115.502 103.982C115.375 104.088 115.138 104.371 115.1 104.532C114.292 103.356 114.652 101.981 115.134 100.805Z" fill="black"/>
<path d="M49.1325 135.446C50.0253 134.401 51.0238 133.483 52.3564 133.018C52.2251 133.428 52.0939 133.839 51.6793 134.012C49.4371 135.45 48.0956 137.814 47.1476 140.238C46.9742 139.823 46.839 139.248 47.0971 138.732C47.5796 137.556 48.3116 136.473 49.1325 135.446Z" fill="black"/>
<path d="M74.507 125.231C75.7508 124.711 76.2714 123.374 76.5931 122.16C76.7157 122.359 76.9441 122.685 77.0667 122.883C76.8212 123.776 76.3261 124.575 75.7422 125.32C74.748 125.933 73.5423 126.292 72.7427 127.087C71.8585 127.523 70.4116 128.47 69.7096 127.421C70.1298 127.271 70.543 127.2 70.9491 127.205C72.159 126.541 73.2632 125.751 74.507 125.231Z" fill="black"/>
<path d="M143.482 91.9404C143.581 91.7148 143.674 91.4653 143.762 91.1917C144.925 91.2977 145.627 92.3469 145.665 93.4764C145.808 94.7328 145.165 95.8706 144.987 97.0508C144.873 97.533 144.742 97.9433 144.327 98.1166C144.133 96.6445 144.886 95.329 145.085 93.9162C144.998 93.3296 144.863 92.7543 144.679 92.1902C144.269 92.059 143.931 91.9109 143.482 91.9404Z" fill="black"/>
<path d="M104.591 110.19C104.79 110.067 105.044 109.856 105.242 109.733C105.276 111.167 105.415 112.728 106.312 113.959C107.136 115.207 108.342 116.138 109.602 116.98C109.636 117.124 109.793 117.467 109.898 117.594C108.342 117.429 107.229 116.248 106.24 115.266C105.204 113.765 104.349 112.068 104.591 110.19Z" fill="black"/>
<path d="M199.588 65.2424C199.732 65.2086 200.053 65.2848 200.197 65.251C200.705 66.1182 201.339 66.8798 202.062 67.6964C200.7 67.713 200.184 66.1647 199.588 65.2424Z" fill="black"/>
<path d="M49.9273 137.536C51.4209 135.818 53.5151 134.719 55.588 133.852C55.6218 133.996 55.6725 134.212 55.7064 134.356C54.1156 135.337 52.508 136.246 51.1118 137.409C50.0752 138.487 49.2838 139.964 49.4062 141.453C49.4259 141.752 49.368 142.043 49.2326 142.328C48.0358 140.788 49.0302 138.885 49.9273 137.536Z" fill="black"/>
<path d="M84.5588 120.211C84.9226 119.822 85.5275 120.136 85.9252 119.89C86.3948 119.628 86.7587 119.239 87.1394 118.922C87.6174 119.341 87.2323 119.962 86.8346 120.208C86.3438 120.703 85.6627 120.711 85.0874 120.846C84.8872 120.64 84.711 120.429 84.5588 120.211Z" fill="black"/>
<path d="M129.221 100.681C129.444 100.123 129.648 99.5941 129.835 99.095C130.964 99.0571 132.068 99.5565 132.537 100.585C132.744 101.143 133.434 101.816 132.782 102.272C132.296 101.172 131.649 100.034 130.346 99.6577C130.105 100.246 129.919 100.745 129.678 101.333C129.572 101.206 129.327 100.808 129.221 100.681Z" fill="black"/>
<path d="M202.625 65.8945C206.924 64.8082 210.896 62.6601 214.864 60.8165C219.879 58.474 224.894 56.1315 229.908 53.789C231.461 52.9687 233.259 52.546 234.828 51.7976C235.006 51.9076 235.201 52.0896 235.306 52.2165C227.767 55.6583 220.351 59.299 212.724 62.6858C209.462 63.9839 206.318 65.7853 202.833 66.4529C202.799 66.3091 202.731 66.0214 202.625 65.8945Z" fill="black"/>
<path d="M163.429 86.7202C163.39 86.8809 163.386 87.1855 163.42 87.3293C165.019 87.0293 167.046 85.6422 166.373 83.7512C165.899 84.3179 165.781 85.1047 165.218 85.6165C164.744 86.1832 164.042 86.4242 163.429 86.7202Z" fill="black"/>
<path d="M42.5616 142.682C43.5346 142.301 44.5077 141.921 45.358 141.342C45.5188 141.38 45.7852 141.545 45.946 141.583C44.9306 142.429 43.7756 143.004 42.4642 143.236C42.5192 143.147 42.5235 142.843 42.5616 142.682Z" fill="black"/>
<path d="M178.866 79.752C178.638 79.4262 177.783 79.0199 178.325 78.7409C178.672 78.2798 179.073 79.0202 179.395 79.0964C179.661 80.5516 177.998 81.5496 176.755 80.7795C177.44 80.4666 178.197 80.1368 178.866 79.752Z" fill="black"/>
<path d="M234.595 53.0666C234.621 52.5294 235.353 52.7368 235.598 53.1345C236.439 54.4545 237.691 55.9057 237.471 57.5512C236.989 57.4369 236.439 57.0349 235.897 57.314C233.139 58.4936 230.431 59.889 227.707 61.2125C222.287 64.3079 216.433 66.5191 211.013 69.6145C208.614 70.7096 206.304 71.8598 204.045 73.2257C204.028 73.1537 203.889 72.883 203.783 72.7561C204.727 71.9271 205.81 71.369 206.981 70.8658C210.345 68.7091 214.199 67.3478 217.668 65.318C222.669 62.7005 227.826 60.4257 232.877 58.024C233.977 57.5378 235.026 56.8358 236.282 56.6922C235.492 55.588 235.712 53.9425 234.595 53.0666Z" fill="black"/>
<path d="M18.4594 156.696C22.2543 154.438 26.3452 152.793 30.2247 150.895C36.0714 148.002 41.9518 145.254 47.8323 142.506C47.9931 142.544 48.3483 142.764 48.526 142.874C46.4699 143.812 44.4858 144.734 42.4467 145.745C35.7115 149.377 28.6804 152.396 21.8057 155.758C20.7607 156.155 19.6734 157.018 18.4594 156.696Z" fill="black"/>
<path d="M202.684 69.3718C202.828 69.3379 203.06 69.3591 203.204 69.3253C203.128 70.937 203.516 72.5911 203.943 74.0844C205.089 79.2793 205.405 84.8209 203.471 89.829C203.022 91.1487 202.413 92.4303 201.537 93.5469C201.431 93.42 201.236 93.2381 201.131 93.1111C201.884 91.7957 202.299 90.3321 202.963 88.9617C203.031 87.9592 203.581 87.0709 203.81 86.1065C203.928 85.3197 204.047 84.533 204.077 83.6912C204.145 82.6886 204.141 81.703 204.137 80.7173C204.103 79.2833 203.837 77.8281 203.659 76.4279C203.334 74.0758 202.417 71.7871 202.684 69.3718Z" fill="black"/>
<path d="M100.549 118.501C101.569 118.641 102.038 119.669 101.881 120.617C101.534 121.078 101.187 121.539 100.494 121.171C100.769 120.726 101.133 120.337 101.247 119.855C101.057 119.369 100.74 118.988 100.549 118.501Z" fill="black"/>
<path d="M208.416 68.252C215.058 64.8692 221.907 62.0448 228.566 58.7339C230.749 57.6895 232.932 56.6451 235.132 55.6726C235.166 55.8164 235.161 56.121 235.123 56.2817C231.66 57.9054 228.213 59.601 224.784 61.3685C219.25 63.6559 213.818 66.3748 208.335 68.878C208.373 68.7173 208.45 68.3958 208.416 68.252Z" fill="black"/>
<path d="M60.1978 138.612C60.3585 138.65 60.6462 138.582 60.79 138.549C60.8067 139.911 61.5594 141.176 62.4771 142.174C63.1877 142.614 64.0802 142.86 64.8627 143.283C66.1231 144.125 66.9266 145.606 68.352 146.181C69.511 146.592 70.7717 146.144 71.9943 145.856C72.1759 146.952 70.6024 146.715 69.917 147.028C68.5168 147.205 67.2352 146.596 66.3174 145.597C65.5392 144.869 64.871 143.964 63.7459 143.697C62.9422 143.507 62.3035 143.05 61.648 142.521C60.7683 141.362 60.0156 140.097 60.1978 138.612Z" fill="black"/>
<path d="M121.351 109.817C122.201 109.237 123.415 109.559 124.037 108.654C125.053 107.808 126.504 107.847 127.701 108.096C127.79 108.151 127.984 108.333 128.09 108.46C127.514 108.596 126.977 108.57 126.44 108.545C125.776 108.625 125.095 108.633 124.515 109.073C124.278 109.356 124.075 109.784 123.766 110.084C123.246 110.13 122.709 110.105 122.188 110.151C122.04 110.49 121.516 110.841 121.905 111.204C122.01 111.331 122.383 111.623 122.56 111.733C122.074 111.924 121.587 112.114 121.143 111.839C120.83 111.153 121.198 110.46 121.351 109.817Z" fill="black"/>
<path d="M152.479 98.2494C153.265 98.368 153.684 99.1803 154.196 99.743C155.042 100.758 155.921 101.918 156.949 102.739C158.171 103.741 159.673 103.995 161.043 104.66C162.076 105.176 163.239 105.282 164.271 105.798C166.352 106.903 168.886 107.673 171.174 106.756C171.487 106.581 171.761 106.668 171.995 107.018C171.326 107.403 170.518 107.517 169.727 107.703C167.879 107.91 166.077 107.347 164.44 106.518C163.319 105.946 161.94 105.891 160.764 105.408C159.017 104.757 157.088 104.299 155.837 102.848C154.585 101.397 153.189 99.9797 152.479 98.2494Z" fill="black"/>
<path d="M92.5821 126.901C93.1913 126.909 93.6354 127.185 93.7157 127.849C93.4363 128.597 92.5521 129.033 91.6934 128.931C92.218 128.58 92.7595 128.301 93.1065 127.84C92.9839 127.641 92.7217 127.172 92.5821 126.901Z" fill="black"/>
<path d="M110.507 118.893C111.019 118.165 111.256 119.172 111.556 119.481C111.924 120.077 112.694 120.124 113.062 120.721C112.571 121.215 111.987 120.67 111.615 120.378C111.082 120.048 110.714 119.451 110.507 118.893Z" fill="black"/>
<path d="M192.635 81.8275C192.516 81.3241 192.22 80.7106 192.55 80.1777C193.379 81.1212 193.485 82.5383 192.558 83.4391C192.101 84.0778 191.331 84.0311 190.633 83.9675C190.731 83.4134 191.34 83.422 191.771 83.3205C192.118 82.8595 192.626 82.4366 192.635 81.8275Z" fill="black"/>
<path d="M168.986 91.6369C169.319 91.761 169.646 91.8612 169.967 91.9374C171.977 91.7686 173.711 90.7537 175.146 89.4299C175.327 90.5256 174.155 91.0288 173.394 91.6631C172.239 92.2382 170.961 92.6144 169.637 92.4703C169.324 93.0752 168.905 93.5531 168.47 93.9591C167.662 94.0732 166.566 94.2549 166.058 93.3876C166.545 93.1973 166.955 93.3285 167.437 93.4428C167.81 93.3047 168.2 93.137 168.609 92.9397C168.711 92.511 168.837 92.0768 168.986 91.6369Z" fill="black"/>
<path d="M89.9843 129.409C90.6316 129.257 91.2745 129.409 91.9175 129.562C91.8625 129.65 91.7863 129.972 91.7313 130.061C91.1602 129.891 90.0815 130.145 89.9843 129.409Z" fill="black"/>
<path d="M106.166 123.025C106.225 122.631 106.69 122.674 106.995 122.678C108.01 124.412 107.747 126.523 107.451 128.49C107.235 129.831 106.52 130.986 105.487 131.76C105.525 131.599 105.568 131.134 105.661 130.884C105.733 130.867 105.894 130.905 105.982 130.96C106.825 128.41 107.511 125.516 106.166 123.025Z" fill="black"/>
<path d="M146.191 105.723C146.06 104.843 146.149 103.608 147.228 103.354C147.643 103.181 147.994 103.706 148.277 103.942C147.882 103.985 147.511 104.021 147.164 104.052C147.037 104.158 146.889 104.496 146.834 104.585C146.888 105.028 146.912 105.452 146.906 105.858C146.745 105.82 146.424 105.744 146.191 105.723Z" fill="black"/>
<path d="M79.4831 139.618C79.3478 139.043 79.5384 138.239 80.2744 138.142C80.1939 138.768 80.0415 139.411 79.4831 139.618Z" fill="black"/>
<path d="M154.605 103.745C154.927 103.821 155.169 103.992 155.333 104.257C155.878 107.544 154.668 110.788 153.068 113.669C152.183 115.394 150.254 116.227 149.12 117.86C148.244 118.976 147.508 120.364 146.121 120.918C145.236 121.353 144.162 121.302 143.176 121.306C140.414 121.5 139.741 124.77 137.38 125.704C135.992 126.258 134.351 125.733 133.209 126.685C132.32 127.425 131.204 127.839 130.023 127.662C129.935 127.607 129.795 127.336 129.761 127.192C130.353 127.129 131.018 127.048 131.665 126.896C132.46 126.406 133.222 125.771 134.246 125.607C135.269 125.442 136.449 125.62 137.444 125.007C138.544 124.52 139.259 123.366 140.041 122.499C141.099 121.187 142.791 120.638 144.403 120.714C146.159 120.757 147.221 119.141 148.224 117.919C149.193 116.553 150.711 115.589 151.947 114.387C154.033 111.317 155.108 107.497 154.605 103.745Z" fill="black"/>
<path d="M114.808 122.663C116.28 122.468 117.562 123.078 118.92 123.366C120.011 123.489 121.048 123.7 122.156 123.895C123.408 124.056 124.686 123.68 125.768 124.412C125.134 124.941 124.207 124.551 123.399 124.665C122.054 124.754 120.718 124.233 119.322 124.106C118.319 124.038 117.431 123.488 116.411 123.348C115.857 123.251 115.231 123.17 114.808 122.663Z" fill="black"/>
<path d="M138.346 115.611C139.548 115.557 140.458 114.584 140.991 113.624C141.08 113.679 141.363 113.916 141.452 113.971C141.168 115.024 140.208 115.781 139.146 116.106C138.714 116.208 137.729 116.212 138.346 115.611Z" fill="black"/>
<path d="M102.568 134.192C103.245 133.198 103.499 131.696 104.849 131.303C104.472 132.606 103.507 133.667 102.881 134.877C102.433 135.336 101.984 135.796 101.536 136.256C100.6 137.766 99.0309 138.514 97.4994 139.102C97.2201 139.85 96.9407 140.599 96.6614 141.348C96.6107 141.132 96.4204 140.646 96.2978 140.447C96.4671 139.876 96.6195 139.233 96.8777 138.717C99.2383 137.782 100.948 136.014 102.568 134.192Z" fill="black"/>
<path d="M184.95 95.6248C186.329 95.6801 187.399 94.7454 187.687 93.3876C188.351 93.3074 188.089 94.128 188.101 94.5045C187.475 95.7142 186.083 96.5726 184.78 96.1959C184.835 96.107 184.912 95.7855 184.95 95.6248Z" fill="black"/>
<path d="M77.2816 148.332C77.4973 148.281 77.7512 148.07 77.9669 148.019C78.8975 148.104 79.8832 148.1 80.7843 147.736C81.6473 147.533 82.3031 146.772 83.1492 146.497C85.1797 146.096 87.1089 145.263 88.6151 143.922C89.0128 143.677 89.4824 143.415 89.7614 143.956C88.1283 145.403 86.3175 146.739 84.1431 147.174C83.2632 147.305 82.7343 147.961 82.0659 148.346C80.5175 148.861 78.7746 149.195 77.2816 148.332Z" fill="black"/>
<path d="M174.444 106.139C175.578 105.796 176.775 106.046 177.993 106.063C180.054 106.11 182.118 105.853 184.064 105.092C185.43 104.771 186.662 103.874 188.062 103.697C189.445 103.447 190.076 101.933 191.442 101.612C193.561 101.265 195.3 99.9459 196.667 98.3345C196.96 97.8607 197.295 97.4533 197.67 97.1121C198.038 97.7087 197.547 98.2035 197.289 98.7195C196.231 100.031 194.979 101.16 193.481 101.891C192.098 102.141 190.621 102.64 189.568 103.646C188.768 104.441 187.499 104.208 186.577 104.805C185.24 105.574 183.802 105.912 182.325 106.411C180.455 106.851 178.522 106.698 176.606 106.617C175.853 106.643 175.083 106.596 174.444 106.139Z" fill="black"/>
<path d="M5.28687 71.6077C4.26366 69.192 7.61446 66.6588 9.48805 68.4951C11.1121 70.2383 9.9652 72.7846 8.03607 73.6175C6.9109 73.3508 5.39234 73.0248 5.28687 71.6077Z" fill="#E56E0C"/>
<path d="M17.0582 78.0993C19.9056 75.6844 25.6877 78.6509 24.4855 82.5763C23.3174 85.3553 19.0572 87.571 16.583 85.117C15.2679 83.0736 15.0105 79.719 17.0582 78.0993Z" fill="#E56E0C"/>
</g>
<defs>
<clipPath id="clip0_1_2192">
<rect width="242" height="180" fill="white" transform="translate(-0.0078125)"/>
</clipPath>
</defs>
</svg>
