<svg width="242" height="180" viewBox="0 0 242 180" fill="none" xmlns="http://www.w3.org/2000/svg">
<path d="M202.903 122.263C203.315 121.989 203.177 121.303 203.589 121.029C204.549 121.166 204.961 122.126 205.578 122.743C206.744 124.115 207.704 125.555 208.733 126.996C209.007 127.339 209.007 127.681 209.076 128.024C208.87 128.093 208.39 128.23 208.184 128.299C206.332 130.219 204.549 132.345 202.423 133.991C200.503 135.5 198.651 137.146 196.593 138.518C193.164 140.712 189.735 142.907 185.963 144.553C180.339 147.091 174.715 149.628 168.954 151.823C163.536 153.675 158.118 155.869 152.562 157.31C149.613 157.996 146.596 158.681 143.578 159.024C142.961 159.093 142.275 159.024 141.658 158.956C140.08 156.35 139.6 153.332 138.846 150.451C138.709 149.765 138.709 149.08 138.64 148.462C139.463 148.554 140.286 148.577 141.109 148.531C147.693 148.188 154.003 146.062 160.312 144.416C163.947 143.387 167.445 141.878 170.874 140.369C176.132 137.809 181.368 135.18 186.58 132.482C190.215 130.562 193.781 128.436 197.416 126.516C199.542 125.487 201.188 123.841 202.903 122.263Z" fill="#333F72"/>
<path d="M116.419 70.414C121.288 68.0135 127.667 69.6596 130.959 73.9803C132.536 76.1064 132.879 79.0555 132.125 81.5932C131.302 84.8852 129.656 88.3144 126.432 89.8918C123.209 91.3321 119.368 91.6064 116.076 90.2347C113.813 89.2745 112.235 87.1484 111.138 84.9538C110.178 83.102 110.246 81.0445 110.383 79.0556C110.658 76.998 111.344 75.0091 112.578 73.2945C113.607 72.06 114.979 71.0998 116.419 70.414Z" fill="#E56E0C"/>
<path d="M176.155 56.4913C180.751 54.571 186.031 55.4626 190.489 53.1993C192.547 52.1706 194.81 50.9361 197.211 51.4847C199.68 51.8962 201.669 54.2967 201.6 56.8343C201.531 57.3829 201.737 58.4117 200.914 58.4803C200.228 58.0002 200.366 57.04 200.16 56.3542C199.68 54.9139 198.719 53.4737 197.142 53.0622C195.153 52.4449 193.164 53.5422 191.381 54.3653C186.992 56.6285 181.848 56.217 177.253 57.7944C175.058 58.6175 173.343 60.5378 172.52 62.7325C171.835 65.2701 172.04 68.4935 174.304 70.2081C174.715 70.6196 175.607 70.4139 175.607 71.0997C175.332 71.7855 174.441 71.6484 173.824 71.4426C172.109 70.6882 171.149 68.8364 170.806 67.0533C170.463 64.8586 170.6 62.4581 171.835 60.5378C172.863 58.8232 174.304 57.3144 176.155 56.4913Z" fill="#E56E0C"/>
<path d="M179.653 61.8408C180.545 61.0864 181.848 61.0178 182.945 61.0864C185.14 61.2922 187.334 60.9492 189.323 60.1262C190.421 59.7147 191.518 59.0975 192.753 59.0975C193.987 59.1661 194.947 60.1948 195.564 61.2236C195.77 61.6351 195.702 62.2523 195.222 62.3209C194.33 61.9094 193.713 60.9492 192.684 60.8121C191.724 60.9492 190.969 61.4293 190.078 61.7037C187.883 62.7324 185.345 63.0753 182.876 62.801C182.191 62.801 181.436 62.6638 180.819 63.0753C180.133 63.7612 180.133 64.8585 180.407 65.7501C180.75 66.4359 181.505 66.7103 181.985 67.3275C182.191 67.739 181.916 68.2877 181.436 68.2877C180.339 68.1505 179.31 67.5333 178.761 66.5731C178.076 64.9957 178.35 63.0068 179.653 61.8408Z" fill="#E56E0C"/>
<path fill-rule="evenodd" clip-rule="evenodd" d="M16.4921 31.4583C16.7664 31.3211 17.0408 31.2068 17.3151 31.1154C17.5208 31.5269 17.8638 31.664 18.2067 31.8698C17.658 33.4472 16.012 34.4074 14.5032 34.9561C19.3726 37.768 24.1049 40.7857 28.9058 43.6662C45.4345 53.6109 61.8946 63.7613 78.3547 73.8431C79.795 74.9404 81.5096 75.6263 82.8127 76.7922C82.0583 77.1351 81.3724 76.3121 80.6866 76.0378C78.5605 74.8719 76.6401 73.5002 74.514 72.3343C56.2022 61.2237 37.8903 50.0445 19.647 38.7967C17.7952 37.6994 15.9434 36.5335 14.0917 35.3676C13.7487 34.7503 14.0917 33.9959 14.5032 33.5158C15.0518 32.6928 15.8063 32.0755 16.4921 31.4583ZM16.2178 32.4185C15.6691 32.9671 15.0518 33.5158 14.7089 34.2702C15.6691 33.8587 16.4921 33.1043 17.3151 32.487C16.9493 32.4413 16.5835 32.4185 16.2178 32.4185Z" fill="black"/>
<path d="M18.1382 31.1154C19.5784 31.5269 20.7443 32.5556 21.9789 33.31C41.7996 46.4096 61.6203 59.5777 81.3039 72.8829C82.6755 73.8431 84.1844 74.5975 85.3503 75.7635C85.076 76.4493 84.5959 75.832 84.1844 75.6263C62.5805 61.3608 41.0452 47.0268 19.5784 32.487C19.0297 32.1441 18.4125 31.7326 18.1382 31.1154Z" fill="black"/>
<path fill-rule="evenodd" clip-rule="evenodd" d="M0.992188 52.7879C1.06077 51.0733 1.60945 49.153 3.11829 48.1928C3.25546 48.33 3.4612 48.6043 3.59837 48.7415C29.5231 59.2348 55.3792 70.0025 81.2353 80.7016C81.3039 80.8387 81.4411 81.1131 81.5097 81.1816C81.3039 81.1816 80.8924 81.1816 80.6866 81.1816C54.9677 70.6197 29.2487 60.0578 3.59837 49.2901C3.32403 50.4561 2.91254 51.5534 2.36386 52.5822C19.5098 59.372 36.7244 66.0932 53.9389 72.9516C60.7973 75.6949 67.6557 78.4383 74.5141 81.1816C75.5428 81.5931 76.5716 81.9361 77.6004 82.4161C77.3717 82.7362 77.1203 82.8276 76.8459 82.6905C63.9064 77.6153 50.9898 72.5401 38.0961 67.4649C26.0253 62.664 13.9545 57.8631 1.88377 53.1308C1.56371 52.9937 1.26652 52.8794 0.992188 52.7879ZM1.67803 52.3078C2.29528 51.3477 2.70678 50.2503 2.91253 49.153C2.22669 50.0446 1.60944 51.1419 1.67803 52.3078Z" fill="black"/>
<path d="M153.042 35.093C155.443 34.2014 157.981 33.6528 160.381 32.6926C165.525 31.1152 170.737 29.6063 175.949 28.0975C178.899 27.4116 181.779 26.3829 184.728 25.8342C187.609 25.2855 190.352 24.1196 193.233 23.7081C198.376 22.5422 203.657 21.7192 208.938 21.1705C209.761 21.1019 210.584 20.8962 211.27 21.3077C209.35 21.8563 207.361 21.8563 205.441 22.1993C200.434 22.8851 195.359 23.7767 190.489 25.0798C186.58 25.8342 182.876 27.2059 179.036 28.0289C176.498 28.509 174.098 29.332 171.629 30.0178C169.434 30.7037 167.171 31.1837 165.045 32.0068C162.37 32.9669 159.627 33.5842 156.952 34.5444C154.894 35.4359 152.7 35.7789 150.711 36.739C149.408 37.2191 148.036 37.4935 146.733 38.1107C136.902 41.6314 127.164 45.4492 117.516 49.5642C110.932 52.3076 104.417 55.0509 97.9697 58.1372C91.2484 61.3606 84.6644 64.8584 78.0803 68.3562C78.0118 68.2876 77.806 68.0819 77.7374 68.0133C80.5494 66.1615 83.567 64.7898 86.5162 63.2124C94.129 59.166 101.879 55.3938 109.835 52.0332C121.151 47.1638 132.467 42.5001 144.058 38.3165C145.224 37.6306 146.664 37.4935 147.899 36.9448C149.545 36.1218 151.396 35.8475 153.042 35.093Z" fill="black"/>
<path d="M161.684 36.3276C164.085 35.436 166.417 34.4073 168.954 33.9272C169.297 33.9958 169.846 33.9272 169.709 34.4073C168.337 34.613 166.965 34.9559 165.731 35.5732C162.919 36.4648 160.244 37.6993 157.569 38.8652C149.751 42.2944 141.932 45.5864 133.976 48.6041C132.948 49.0842 131.919 49.3586 130.821 49.5643C131.439 48.6041 132.742 48.6041 133.633 48.0555C143.029 44.3519 152.357 40.3055 161.684 36.3276Z" fill="black"/>
<path d="M213.602 21.1021C215.865 20.8278 218.129 21.1707 220.392 21.3764C221.489 21.445 222.587 21.6508 223.684 21.7193C226.976 22.268 230.542 22.8853 233.149 25.1485C234.452 26.1087 235.206 27.6176 235.892 29.0578C236.075 29.4236 236.006 29.7208 235.686 29.9494C235.206 28.7835 234.589 27.6861 233.834 26.6574C232.326 25.0114 230.268 23.914 228.142 23.3654C227.41 23.1825 226.679 22.9996 225.947 22.8167C225.353 22.7252 224.758 22.6109 224.164 22.4738C223.478 22.3823 222.792 22.2909 222.107 22.1994C219.295 21.9251 216.551 21.445 213.739 21.5822C213.739 21.445 213.671 21.1707 213.602 21.1021Z" fill="black"/>
<path d="M174.852 33.996C176.087 33.5159 177.321 32.8986 178.624 32.5557C182.419 31.4584 186.191 30.3839 189.941 29.3323C192.684 28.4407 195.496 28.0978 198.239 27.2062C199.817 27.069 201.326 26.5889 202.903 26.3146C207.773 25.423 212.711 25.0115 217.649 25.1487C221.764 25.2172 226.016 26.1774 229.582 28.4407C230.062 28.8522 230.885 29.1265 230.885 29.8124C230.199 30.361 229.925 29.3323 229.445 29.0579C225.536 26.6575 220.941 25.7659 216.414 25.8345C209.83 25.9031 203.246 26.7947 196.868 28.4407C194.124 28.7836 191.518 29.8124 188.843 30.4296C185.551 31.184 182.259 31.9385 179.105 33.173C177.87 33.5159 176.567 34.0646 175.264 34.1331C175.195 34.1331 174.989 33.996 174.852 33.996Z" fill="black"/>
<path d="M171.286 40.5114C173.823 39.414 176.293 37.6994 179.242 37.8366C179.31 37.9738 179.585 38.1795 179.722 38.2481C176.567 38.2481 173.892 40.0313 171.149 41.1972C170.326 41.2658 169.228 41.8145 168.543 41.1286C169.434 40.7857 170.463 40.9915 171.286 40.5114Z" fill="black"/>
<path d="M181.368 38.7281C183.288 37.6307 185.483 36.7391 187.815 36.8077C188.363 36.8763 189.255 36.7391 189.529 37.425C187.335 37.1506 185.071 37.3564 183.151 38.4537C180.75 39.6882 178.35 40.8542 175.881 41.8829C173.824 42.5002 171.903 43.5975 169.708 43.8033C169.091 43.8033 168.405 44.1462 167.994 43.5975C168.748 43.2546 169.64 43.3232 170.463 43.1174C172.109 42.8431 173.549 41.8829 175.195 41.54C177.298 40.717 179.356 39.7797 181.368 38.7281Z" fill="black"/>
<path d="M193.301 35.3676C193.233 34.476 194.33 35.0933 194.879 34.9561C195.565 34.9561 196.227 34.9561 196.868 34.9561C200.434 34.8875 204 35.5734 207.567 35.2305C209.624 35.1619 211.682 34.6818 213.739 34.9561C215.728 35.299 217.511 36.465 219.226 37.4937C220.186 38.111 221.146 38.8654 221.832 39.8256C221.764 39.8942 221.558 40.0313 221.489 40.0999C220.255 38.6597 218.677 37.7681 217.1 36.8079C215.934 36.1906 214.768 35.642 213.396 35.5048C211.476 35.2305 209.487 35.7105 207.498 35.7791C204.48 36.1221 201.463 35.642 198.445 35.5048C196.73 35.4362 195.016 35.5048 193.301 35.3676Z" fill="black"/>
<path d="M156.883 47.3697C158.804 46.7524 160.724 46.1352 162.713 45.7237C162.439 45.998 162.164 46.3409 161.753 46.4095C160.244 47.0268 158.529 47.2325 157.089 48.0555C153.385 49.4272 149.682 50.7989 145.978 52.1706C143.647 52.7192 141.452 53.8166 139.12 54.4338C136.72 55.4626 134.182 56.0113 131.713 56.8343C130.136 57.5201 128.558 58.0002 126.912 58.4117C126.775 58.3431 126.569 58.1374 126.432 58.0688C128.147 57.04 130.067 56.6971 131.85 55.9427C136.788 54.571 141.52 52.5821 146.458 51.0732C147.967 50.3874 149.613 50.0445 151.191 49.4272C152.974 48.5356 155.1 48.3299 156.883 47.3697Z" fill="black"/>
<path d="M163.673 45.3121C163.81 45.3807 164.153 45.5179 164.29 45.5865C164.908 46.7524 165.525 47.9869 166.005 49.2214C165.456 50.2502 164.29 50.2502 163.399 50.7303C161.821 51.4847 159.97 51.759 158.324 52.5134C157.089 53.0621 155.717 53.2679 154.483 53.8851C153.18 54.5024 151.74 54.7081 150.436 55.2568C148.31 56.217 145.91 56.5599 143.784 57.5201C142.481 58.0687 141.04 58.3431 139.669 58.8917C141.589 58.686 143.372 57.9316 145.224 57.4515C148.379 56.217 151.808 55.9426 154.894 54.571C156.06 54.0223 157.432 53.8851 158.529 53.1993C159.284 52.9249 160.244 52.3077 160.93 52.9935C159.215 53.3365 157.775 54.2966 156.129 54.7081C155.032 54.9825 154.071 55.5997 152.974 55.8741C147.556 57.3829 142.069 58.9603 136.651 60.5378C135.554 60.8121 134.388 60.8807 133.29 61.155C133.29 61.0178 133.222 60.7435 133.222 60.6749C135.554 60.1263 137.748 59.0975 139.943 58.1373C140.766 57.9316 141.521 57.7258 142.275 57.3143C143.921 56.5599 145.704 56.3541 147.35 55.5997C148.722 54.9139 150.299 54.7767 151.74 54.0909C152.768 53.5422 153.934 53.3364 155.032 52.9249C156.815 51.9648 158.872 51.759 160.724 50.936C162.233 50.1816 164.016 50.113 165.388 49.0842C164.702 47.9183 164.222 46.5466 163.673 45.3121Z" fill="black"/>
<path d="M180.065 41.1971C181.368 40.3055 182.945 39.5511 184.591 39.8254C184.591 39.7569 184.66 39.4825 184.66 39.4139C185.62 39.2768 186.58 39.2082 187.54 39.2082C189.598 39.2082 190.969 41.06 192.89 41.54C193.438 41.7458 194.124 41.8144 194.467 42.3631C193.438 42.4316 192.478 42.0887 191.518 41.6772C190.352 41.1971 189.529 40.0998 188.295 39.8254C187.197 39.6883 186.1 39.7569 185.003 39.894C185.894 40.1684 186.786 40.3055 187.609 40.7856C188.363 41.3343 189.049 41.9515 189.735 42.6374C190.627 43.7347 191.93 44.8321 193.507 44.6263C194.879 44.7635 195.839 43.529 197.005 42.9117C197.965 42.363 199.062 42.0887 200.16 41.8144C200.503 41.6772 200.846 41.9515 201.188 42.0887C199.337 42.5688 197.348 43.0489 195.839 44.4206C194.81 45.175 193.576 45.2436 192.341 45.175C190.421 44.6949 189.392 42.9117 187.952 41.7458C186.786 40.717 185.208 40.3741 183.7 40.3055C182.191 40.4427 180.956 41.2657 179.79 42.0887C178.967 42.706 178.213 43.3918 177.801 44.2834C177.39 45.5179 177.801 46.821 177.801 48.0555C177.733 48.1927 177.527 48.3984 177.458 48.467C177.184 47.3011 177.047 46.0666 177.047 44.8321C177.39 43.1861 178.762 42.0201 180.065 41.1971Z" fill="black"/>
<path d="M193.507 37.082C195.496 37.082 197.416 37.7679 199.405 37.9736C201.943 38.248 204.48 38.3165 206.949 37.8365C208.87 37.3564 210.79 37.425 212.71 37.5621C213.671 37.6993 214.608 37.8593 215.522 38.0422C216.757 38.4537 217.991 39.0024 218.814 40.0311C219.843 41.2656 220.735 42.5687 221.215 44.0776C221.169 44.3062 221.123 44.5577 221.078 44.832C220.735 44.1462 220.323 43.3918 220.049 42.7059C219.569 41.9515 219.089 41.3342 218.609 40.6484C218.472 40.5798 218.266 40.3055 218.197 40.1683C217.443 39.4139 216.414 38.9338 215.385 38.6595C212.299 37.905 209.076 37.905 206.058 38.6595C202.08 39.2767 198.102 38.4537 194.193 37.5621C193.919 37.5164 193.69 37.3564 193.507 37.082Z" fill="black"/>
<path d="M68.8901 74.186C70.0561 73.5687 71.0162 72.6086 72.1821 72.1285C72.6622 72.6771 71.6335 73.0201 71.3591 73.363C70.4675 73.9117 69.7131 74.5975 68.6844 74.8032C68.753 74.6661 68.8215 74.3232 68.8901 74.186Z" fill="black"/>
<path d="M96.118 67.4647C99.3414 65.8187 102.565 63.8297 106.2 62.9381C108.326 62.3895 110.383 61.5665 112.578 61.2921C113.95 61.0864 115.253 60.5377 116.624 60.6749C116.007 61.6351 114.567 61.3607 113.538 61.7036C110.795 62.5266 107.983 63.0067 105.377 63.9669C102.085 64.8585 99.2042 66.7788 96.2551 68.2191C94.129 69.2479 92.3458 70.7567 90.4941 72.197C88.9852 73.4315 87.4078 74.666 86.1733 76.2434C85.0074 77.7523 83.5671 79.0554 82.9498 80.9071C82.4698 82.2788 81.9211 83.7191 81.9897 85.2279C82.5383 87.2854 83.087 89.5487 84.733 91.0575C86.8591 93.6637 90.014 94.8982 92.9631 96.2699C94.2662 96.8871 95.775 96.8186 97.0095 97.5044C96.8038 97.573 96.4609 97.6416 96.2551 97.6416C94.1976 97.7787 92.2773 96.9557 90.4255 96.0641C88.5737 95.104 86.5848 94.2124 85.2131 92.6349C84.1158 91.4004 82.6755 90.2345 82.3326 88.5885C82.0582 87.354 81.2352 86.3252 81.2352 85.0907C81.0981 83.4447 81.7839 81.7987 82.3326 80.2899C82.8812 78.5753 84.253 77.3408 85.2817 75.9691C87.0649 73.7058 89.3967 72.0598 91.5914 70.3452C93.0317 69.2479 94.4719 68.2191 96.118 67.4647Z" fill="black"/>
<path d="M170.6 45.7235C172.657 45.0377 174.509 43.8032 176.635 43.4603C176.773 43.5288 176.978 43.666 177.115 43.8032C174.509 44.3519 172.246 45.9293 169.64 46.478C169.914 46.2036 170.188 45.7921 170.6 45.7235Z" fill="black"/>
<path d="M119.231 60.5378C122.728 59.3033 126.569 60.1263 129.998 61.2237C133.428 62.3896 136.925 63.8299 139.6 66.3675C141.383 67.8763 142.892 69.7281 143.715 71.9228C145.155 74.9404 145.567 78.5754 144.47 81.7302C143.989 82.6904 143.715 83.7878 142.755 84.3364C142.686 83.582 143.235 82.9648 143.509 82.2789C144.47 80.0157 144.332 77.4095 143.921 75.009C143.578 73.9803 143.029 72.9515 142.686 71.9228C141.315 68.7679 138.571 66.3675 135.691 64.6529C131.37 62.4582 126.706 60.5378 121.837 60.675C120.945 60.6064 120.122 61.0179 119.299 60.8122L119.231 60.5378Z" fill="black"/>
<path d="M193.096 39.4825C193.164 39.4139 193.37 39.2768 193.507 39.2082C194.467 39.3454 195.496 39.5511 196.456 39.6197C196.959 39.7111 197.462 39.7797 197.965 39.8254C198.422 39.8254 198.902 39.8483 199.405 39.894C199.337 40.0312 199.268 40.2369 199.268 40.3741C198.377 40.3741 197.485 40.2369 196.662 40.1684C196.068 40.1226 195.473 40.0541 194.879 39.9626C194.284 39.8712 193.69 39.7111 193.096 39.4825Z" fill="black"/>
<path d="M62.5805 78.8498C62.8091 78.6669 63.0148 78.484 63.1977 78.3011C63.6778 78.644 63.2663 78.9183 63.0605 79.2613C62.8548 79.3298 62.5119 79.3984 62.3061 79.467C62.3747 79.3298 62.5119 79.0555 62.5805 78.8498Z" fill="black"/>
<path d="M168.405 49.4272C170.463 47.9869 173.001 47.644 175.401 46.8896C175.332 47.0268 175.332 47.3011 175.332 47.4383C173.686 47.9869 172.04 48.3299 170.394 48.8785C169.777 49.0843 169.16 49.7015 168.405 49.4272Z" fill="black"/>
<path d="M59.8371 80.9758C60.18 80.6329 60.5915 80.4957 61.0716 80.29C60.9344 80.7701 60.6601 81.113 60.3172 81.3873C58.2597 83.1019 56.2707 84.9537 54.3504 86.8054C51.4699 89.6174 48.5894 92.4979 46.3261 95.8585C45.2973 97.3674 44.4057 99.082 44.6115 100.934C44.6115 101.688 45.1602 102.168 45.5717 102.717C45.5031 102.854 45.3659 103.06 45.2973 103.197C44.8858 102.785 44.2686 102.443 44.1314 101.757C43.5141 99.9736 44.2 98.0532 45.0916 96.4758C47.5606 92.3607 51.0584 88.9316 54.5561 85.5709C54.9219 85.2509 55.2877 84.908 55.6535 84.5422C56.9795 83.3077 58.374 82.1189 59.8371 80.9758Z" fill="black"/>
<path d="M205.715 39.4826C207.018 39.2769 208.321 39.3455 209.624 39.4826C210.173 39.5512 210.79 39.6198 211.339 39.6884C213.945 39.8941 216.62 40.8543 218.472 42.7747C219.02 43.4605 219.432 44.2378 219.706 45.1065C219.98 45.4494 219.775 45.8609 219.5 46.1353C219.363 44.8322 218.54 43.6663 217.649 42.7061C216.003 41.3344 213.945 40.4428 211.819 40.2371C211.133 40.1913 210.447 40.1228 209.761 40.0313C209.35 39.9856 208.961 39.9399 208.595 39.8941C207.635 39.8256 206.744 39.8256 205.852 39.8256L205.715 39.4826Z" fill="black"/>
<path d="M171.492 50.8674C172.109 49.9072 173.275 49.5643 174.098 48.8785C174.166 49.0156 174.235 49.29 174.304 49.4271C173.412 49.9758 172.589 50.6617 171.492 50.8674Z" fill="black"/>
<path d="M161.341 52.7878C162.713 52.8564 162.027 54.4338 162.507 55.2569C161.547 56.5599 159.969 57.2458 158.461 57.7945C156.815 58.6175 154.963 58.8918 153.248 59.6462C152.082 60.1949 150.779 60.4006 149.613 60.9493C147.419 61.9781 145.018 62.1838 142.755 63.0068C141.178 63.5555 139.463 63.8984 137.885 64.5157C137.657 64.3785 137.451 64.2642 137.268 64.1728C138.846 63.6241 140.354 62.8011 142.001 62.3896C144.675 61.6352 147.35 60.9493 149.956 60.1263C152.288 58.9604 154.894 58.686 157.226 57.5201C158.941 57.1086 160.518 56.2856 161.89 55.1883C161.684 54.3653 161.89 53.4737 161.341 52.7878Z" fill="black"/>
<path d="M169.434 51.1418C169.434 51.0046 169.434 50.7989 169.434 50.6617C170.12 50.4559 170.737 50.2502 171.423 50.0444C171.56 51.0046 170.12 50.7988 169.503 51.1418C170.943 51.4161 172.589 51.9648 173.892 51.0732C174.029 51.1418 174.235 51.2789 174.304 51.3475C172.932 52.5134 171.012 52.1019 169.434 51.759C167.857 51.5533 166.417 52.3077 165.251 53.2679C163.948 54.5024 163.399 56.2856 163.399 58.0002C163.33 58.8232 164.016 59.3718 164.428 59.9891C164.771 60.6749 164.702 61.4294 164.771 62.1838C164.633 62.4581 164.405 62.6639 164.085 62.801C164.085 61.8409 164.428 60.6749 163.673 59.9205C163.056 59.2347 162.644 58.2745 162.782 57.3143C162.919 55.6683 163.605 54.0223 164.839 52.7878C166.074 51.759 167.72 51.0046 169.434 51.1418Z" fill="black"/>
<path d="M234.863 33.1041C235.206 32.5555 235.412 31.801 236.029 31.4581C235.823 33.1727 234.726 34.5444 233.629 35.7789C232.188 37.2878 230.748 38.7966 229.239 40.3055C228.279 41.2199 227.296 42.1115 226.29 42.9802C225.742 43.4374 225.193 43.8947 224.644 44.3519C221.146 46.9581 217.374 49.2214 213.671 51.6218C203.657 57.8629 193.507 64.0355 182.877 69.2478C175.881 72.7456 168.748 75.9691 161.821 79.5354C159.832 80.4956 157.843 81.7301 155.649 82.2102C155.649 82.073 155.58 81.7987 155.512 81.7301C157.089 81.3186 158.461 80.5642 159.832 79.8783C169.023 75.0089 178.556 70.8938 187.815 66.093C195.016 62.2523 202.011 58.0687 209.007 53.8165C208.733 53.405 208.39 53.062 208.39 52.6505C208.596 50.7988 208.938 48.947 208.184 47.1638C207.841 46.6152 207.43 45.9979 206.95 45.5178C206.127 44.9006 205.098 44.6262 204.275 43.9404C205.852 43.8718 207.292 44.9006 208.184 46.1351C209.281 47.4382 209.213 49.2213 209.213 50.7988C209.076 51.6904 208.664 52.7877 209.487 53.4736C214.7 50.2501 219.98 47.0267 224.987 43.3917C226.816 41.8829 228.553 40.2826 230.199 38.5909C230.611 38.1336 231.045 37.6764 231.503 37.2192C232.737 35.9161 234.04 34.7502 234.863 33.1041Z" fill="black"/>
<path d="M239.047 30.8411C239.115 30.7039 239.321 30.4982 239.39 30.361C240.693 35.9163 241.104 41.6774 240.967 47.4384C240.83 52.7879 239.938 58.0689 238.841 63.3499C237.195 71.1684 234.657 78.7812 231.228 85.9825C227.936 93.2524 223.478 99.9736 218.609 106.283C216.071 109.575 213.534 112.867 210.379 115.611C210.31 115.542 210.242 115.405 210.173 115.336C211.202 113.896 212.505 112.662 213.671 111.359C218.815 105.186 223.547 98.6705 227.525 91.7436C232.668 82.3476 236.509 72.1286 238.498 61.5667C239.595 56.08 240.35 50.4561 240.281 44.8322C240.35 40.0999 239.664 35.4362 239.047 30.8411Z" fill="black"/>
<path d="M175.195 50.2502C175.378 49.8387 175.584 49.4044 175.812 48.9471C175.881 49.1529 176.018 49.4958 176.087 49.7016C175.904 49.9759 175.744 50.2502 175.607 50.5246C175.469 50.456 175.264 50.3188 175.195 50.2502Z" fill="black"/>
<path d="M202.08 41.4716C202.766 41.4716 203.52 41.5401 204.206 41.6087C206.606 42.226 209.213 42.9118 210.927 44.9008C210.996 44.9693 211.202 45.2437 211.339 45.3122C212.436 46.9583 213.602 48.4671 214.631 50.1131C214.265 49.9759 213.922 49.7931 213.602 49.5645C212.299 47.8499 211.407 45.8609 209.761 44.4892C208.801 43.6662 207.567 43.2547 206.401 42.8432C205.098 42.3631 203.657 41.8831 202.149 42.0202C202.149 41.8831 202.08 41.6087 202.08 41.4716Z" fill="black"/>
<path d="M126.021 64.4472C126.775 64.4472 127.461 64.3786 128.215 64.4472C128.673 64.5386 129.153 64.6301 129.656 64.7215C130.821 65.133 132.468 65.2702 133.016 66.5047C130.822 65.5445 128.49 64.8587 126.089 64.8587C126.089 64.7901 126.021 64.5158 126.021 64.4472Z" fill="black"/>
<path d="M101.468 72.0599C101.948 71.7169 102.222 72.5399 101.81 72.7457C101.33 73.0886 100.987 72.2656 101.468 72.0599Z" fill="black"/>
<path d="M237.126 33.9274C237.264 33.8588 237.469 33.6531 237.538 33.5845C237.538 34.1331 237.401 34.6818 237.058 35.0247C235.343 37.0137 233.629 39.0026 231.708 40.7172C231.297 41.083 230.908 41.4488 230.542 41.8145C230.131 42.1346 229.742 42.4775 229.376 42.8433C228.462 43.6206 227.548 44.3979 226.633 45.1751C223.89 47.3012 221.146 49.3588 218.197 51.1419C218.129 51.0734 217.992 50.9362 217.923 50.799C220.666 48.8787 223.41 47.0269 226.016 44.9008C226.702 44.3521 227.388 43.8035 228.073 43.1862C229.857 41.6774 231.64 40.0999 233.286 38.4539C234.589 36.9451 236.098 35.642 237.126 33.9274Z" fill="black"/>
<path d="M113.195 71.9914C114.43 70.894 115.939 69.9339 117.653 69.8653C120.328 69.3852 123.209 69.248 125.678 70.5511C127.598 71.6485 129.381 73.2259 129.998 75.4206C129.93 75.352 129.656 75.352 129.518 75.2834C128.352 73.2259 126.432 71.4427 124.1 70.6883C122.248 70.0024 120.259 70.2082 118.339 70.3454C116.83 70.6883 115.321 71.0312 114.224 72.06C111.892 74.0489 110.178 76.7922 109.766 79.8099C109.835 81.6617 109.56 83.7192 110.521 85.3652C110.864 86.5997 112.372 86.8741 112.921 87.9714C111.892 87.6285 110.795 87.0798 110.178 86.1882C108.875 84.1993 108.875 81.7303 108.943 79.3984C109.492 76.5179 111.138 73.9803 113.195 71.9914Z" fill="black"/>
<path d="M211.682 43.8721C212.573 43.7349 213.259 44.4207 214.082 44.6265C215.317 45.2437 216.826 45.5181 217.854 46.4782C217.1 46.8212 216.483 46.1353 215.797 45.9981C214.425 45.3123 212.779 44.9694 211.682 43.8721Z" fill="black"/>
<path d="M141.04 65.2014C141.109 65.0642 141.109 64.7213 141.178 64.5841C143.784 64.104 146.253 65.6129 148.585 66.573C150.573 67.396 152.631 68.4934 154.826 68.6991C155.854 68.7677 156.883 68.6306 157.981 68.4934C157.775 68.9049 157.569 69.2478 157.089 69.2478C153.865 69.8651 150.779 68.2876 147.899 67.0531C146.184 66.2987 144.538 65.4757 142.686 65.1328C142.138 65.0642 141.589 65.0642 141.04 65.2014Z" fill="black"/>
<path d="M156.129 60.8808C157.089 60.4007 158.118 60.2635 159.147 60.1263C159.375 60.2178 159.627 60.3321 159.901 60.4693C158.049 60.9493 156.197 61.2923 154.551 62.2524C152.151 63.5555 149.545 65.133 146.733 64.7215C146.253 64.5843 145.361 64.4471 145.773 63.8299C146.39 63.967 146.939 64.2414 147.624 64.2414C148.516 64.0356 149.408 63.7613 150.299 63.4869C152.425 62.9383 154.14 61.5666 156.129 60.8808Z" fill="black"/>
<path d="M172.795 57.6572C173.755 56.8342 174.784 55.9426 175.95 55.3254C177.184 54.9139 178.419 54.5024 179.722 54.2966C181.848 54.1594 183.974 54.1594 186.031 53.5422C188.432 52.8563 190.764 52.1019 193.233 51.759C194.81 51.2103 196.456 51.0732 198.102 51.2789C198.308 51.3475 198.582 51.4161 198.719 51.4161C200.023 51.6218 200.983 52.7878 201.326 54.0223C201.737 55.1882 201.669 56.4227 202.011 57.5886C201.943 57.7258 201.737 57.9316 201.669 58.0687C200.846 56.4227 201.394 54.3652 200.16 52.9249C199.748 52.2391 199.062 51.9648 198.308 51.8276C198.171 51.759 197.828 51.759 197.691 51.6904C195.839 51.4847 194.124 52.1019 192.273 52.3763C189.872 52.9249 187.54 53.7479 185.14 54.3652C182.739 55.051 180.065 54.4338 177.664 55.3254C175.675 55.7369 174.166 57.1771 172.726 58.5488C170.531 60.9492 169.846 64.3099 170.326 67.4647C170.737 69.1107 172.383 70.0709 173 71.6483C171.766 71.3054 171.08 70.2081 170.394 69.2479C169.228 67.4647 169.434 65.2014 169.708 63.1439C170.189 61.0864 171.217 59.1661 172.795 57.6572Z" fill="black"/>
<path d="M175.675 56.8341C176.567 56.2169 177.596 55.874 178.624 55.7368C180.819 55.6682 183.014 55.4625 185.277 55.3939C186.786 55.3253 188.226 54.6395 189.666 54.228C191.244 53.8165 192.684 52.8563 194.33 52.7191C195.702 52.5819 197.211 52.4448 198.445 53.1992C199.817 53.885 200.297 55.3939 200.914 56.697C201.189 57.3142 201.12 57.9315 201.051 58.5487C200.64 58.2058 200.571 57.6572 200.434 57.1771C200.023 56.2855 199.68 55.3253 199.131 54.5023C197.691 52.8563 195.359 53.1306 193.439 53.4735C192.478 53.7479 191.587 54.2965 190.627 54.5023C188.981 54.8452 187.54 55.874 185.826 55.874C183.425 56.0797 181.025 56.1483 178.556 56.2855C177.87 56.4226 177.116 56.5598 176.498 56.9713C174.99 58.1372 173.618 59.5775 172.589 61.1549C172.246 61.9779 172.109 62.8009 171.835 63.624C171.355 64.927 171.903 66.2987 172.383 67.5332C173.069 68.8363 174.509 69.3164 175.47 70.3452C175.15 70.3909 174.852 70.3452 174.578 70.208C173.481 69.5907 172.383 68.7677 171.835 67.6018C171.515 66.8245 171.286 66.0244 171.149 65.2014C171.012 64.3098 171.355 63.4868 171.56 62.6638C171.972 60.1948 174.029 58.4802 175.675 56.8341Z" fill="black"/>
<path d="M142.069 66.916C142.206 66.916 142.481 66.916 142.618 66.916C145.361 68.0819 148.31 68.9049 151.191 70.0022C152.974 70.6195 154.826 71.3739 156.746 71.5111C157.226 71.5797 157.912 71.1682 158.186 71.7168C157.638 71.9226 157.02 72.1969 156.403 72.0597C154.14 71.7854 152.014 70.9624 149.956 70.208C147.556 69.3164 145.018 68.6991 142.755 67.5332C142.481 67.3503 142.252 67.1446 142.069 66.916Z" fill="black"/>
<path d="M70.3305 89.2059C72.9367 87.9028 75.68 86.8054 78.3548 85.5709C78.492 85.6395 78.7663 85.7081 78.8349 85.7767C78.2177 86.2568 77.5318 86.5311 76.7774 86.874C74.3084 87.9714 71.8393 89.1373 69.4389 90.4404C65.9411 92.2921 62.4434 94.2811 59.4942 96.9558C58.6027 97.8474 57.6425 98.8076 57.3682 100.111C57.5053 100.797 58.2597 101.139 58.877 101.277C60.6602 101.551 62.4434 101.482 64.2266 101.551C66.2841 101.62 68.3416 101.825 70.3305 101.208C72.6623 100.865 74.9256 100.111 77.1889 99.4249C79.1092 98.6019 81.0296 98.0532 83.0185 97.5731C81.9212 98.8762 80.0694 98.739 78.6977 99.4934C75.3371 100.659 71.9765 101.688 68.5473 102.168C66.1469 102.374 63.6779 102.1 61.2774 102.1C59.9743 102.031 58.6027 102.1 57.5053 101.277C56.8881 100.865 56.6823 100.042 56.9567 99.3563C57.7111 97.5731 59.2199 96.3386 60.6602 95.1041C63.6093 92.7722 67.0385 90.989 70.3305 89.2059Z" fill="black"/>
<path d="M151.465 65.27C153.866 63.624 156.678 62.8696 159.49 62.6638C160.107 62.6638 160.998 62.4581 161.204 63.2125C159.558 63.1439 157.981 63.4868 156.403 63.7612C154.62 64.1727 153.043 65.2014 151.26 65.8187C151.328 65.6815 151.397 65.4072 151.465 65.27Z" fill="black"/>
<path d="M80.138 86.5997C79.9323 86.2568 80.2066 85.9138 80.3438 85.5709C80.8239 87.0798 81.5097 88.5886 82.0584 90.0975C82.95 91.812 84.1159 93.5266 85.076 95.2412C85.6247 96.27 86.4477 97.0244 87.2707 97.8474C87.8194 98.4647 88.4367 98.9448 88.7796 99.6992C87.6822 99.4934 87.1336 98.4647 86.3792 97.8474C86.1505 97.6188 85.9448 97.3902 85.7619 97.1616C85.6933 97.093 85.419 96.8187 85.3504 96.7501C84.0473 94.7611 82.8128 92.7722 81.6469 90.7833C81.1668 89.4116 80.4124 88.1085 80.138 86.5997Z" fill="black"/>
<path d="M76.9145 88.4513C77.4632 88.2456 78.0119 87.9712 78.5605 87.6969C78.6291 87.7655 78.8349 87.9712 78.9034 88.0398C78.2862 88.4513 77.7375 88.7942 77.0517 89C74.1712 90.1659 71.4964 91.7434 68.753 93.2522C67.1528 94.1209 65.6211 95.1268 64.1579 96.2699C63.3349 97.0243 62.169 97.7101 61.8947 98.8761C62.8548 99.4247 64.0208 99.219 65.1181 99.1504C68.0672 98.8761 71.0163 98.6017 73.9654 98.1216C76.1601 97.5044 78.4234 96.9557 80.5495 96.2013C81.3725 95.7898 82.0583 95.2411 82.8127 94.761C82.9499 94.8296 83.0871 94.9668 83.2243 95.0354C82.1955 95.7898 81.1667 96.6814 79.9322 97.0243C77.9204 97.6644 75.8858 98.236 73.8283 98.7389C70.4905 99.2419 67.1299 99.5848 63.7464 99.7677C62.9234 99.7677 61.8261 99.8362 61.4832 98.8761C61.2774 98.0531 62.1004 97.4358 62.5805 96.8871C64.9809 94.761 67.6557 93.1836 70.3991 91.6748C72.4566 90.4403 74.6513 89.3429 76.9145 88.4513Z" fill="black"/>
<path d="M159.284 66.6418C160.107 64.8586 162.096 64.31 163.673 63.3498C163.742 63.4184 163.81 63.6927 163.879 63.8299C162.85 64.4471 161.753 64.9272 160.793 65.6816C160.038 66.2989 159.627 67.1905 159.421 68.1507C159.489 68.9737 159.421 69.9338 159.832 70.6883C161.273 72.4029 163.879 72.7458 165.045 74.7347C164.359 74.9405 163.879 74.2546 163.399 73.9117C162.096 72.8144 160.244 72.4029 159.284 70.894C158.735 69.5909 158.529 67.9449 159.284 66.6418Z" fill="black"/>
<path d="M123.62 75.9692C123.94 75.7405 124.1 75.832 124.1 76.2435C123.78 76.4721 123.62 76.3807 123.62 75.9692Z" fill="black"/>
<path d="M118.614 77.958C118.751 77.4779 119.437 77.7523 119.231 78.2323C119.094 78.6438 118.408 78.3009 118.614 77.958Z" fill="black"/>
<path d="M75.7486 91.332C76.7774 91.0576 77.7375 90.6461 78.6977 90.3032C78.9035 90.3718 79.1778 90.509 79.3835 90.5776C75.4057 92.0864 71.4278 93.7324 67.8615 96.0643C67.45 96.4072 66.627 96.8187 66.9013 97.4359C67.2442 97.6417 67.5871 97.7103 67.9986 97.7789C69.7132 97.7789 71.2907 97.093 73.0053 96.6815C75.6114 95.9957 78.2176 95.1041 80.8924 94.4868C80.6866 94.9669 80.2751 95.2413 79.7265 95.3098C76.503 96.27 73.211 97.2302 69.919 98.1218C69.3703 98.1904 68.753 98.1904 68.1358 98.3275C67.5871 98.2361 67.0385 98.0989 66.4898 97.916C66.3983 97.596 66.3069 97.2759 66.2155 96.9559C66.4898 96.6129 66.7641 96.2014 67.1756 95.9271C69.7818 94.0067 72.7995 92.7037 75.7486 91.332Z" fill="black"/>
<path d="M177.184 64.4472C177.459 63.0069 178.556 61.7038 179.996 61.2923C181.985 60.9494 184.043 61.841 186.031 61.5667C187.266 61.2923 188.089 60.195 189.255 59.7835C190.764 59.2348 192.547 58.549 194.193 59.372C194.81 59.5777 194.81 60.3322 194.947 60.8123C194.627 60.5379 194.33 60.2407 194.056 59.9207C193.301 59.7149 192.547 59.372 191.793 59.5777C190.695 59.8521 189.598 60.1264 188.706 60.7437C187.952 61.1552 187.335 61.841 186.512 62.0468C184.248 62.8012 181.848 61.2238 179.653 62.1153C177.801 62.9383 177.253 65.476 178.35 67.1906C178.762 67.8078 179.447 68.0136 180.065 68.3565C179.859 68.4251 179.516 68.5622 179.31 68.6308C178.716 68.3565 178.19 67.9907 177.733 67.5335C177.459 66.5047 176.978 65.476 177.184 64.4472Z" fill="black"/>
<path d="M235.069 47.4382C235.137 46.8895 235.069 46.2037 235.549 45.8608C235.892 47.1639 235.549 48.5356 235.343 49.8386C233.766 57.3829 231.914 64.7899 229.239 71.9912C227.593 76.7235 225.741 81.4558 223.547 85.9138C219.912 93.7323 215.317 101.071 209.693 107.586C208.664 108.684 207.635 109.85 206.332 110.673C206.401 110.535 206.469 110.192 206.469 110.055C212.299 104.02 217.031 97.0243 220.803 89.5487C224.095 83.239 226.77 76.6549 229.102 69.9337C231.365 63.6926 232.943 57.1771 234.452 50.7302C234.657 49.6329 234.863 48.5356 235.069 47.4382Z" fill="black"/>
<path d="M123.003 78.5753C123.323 78.3467 123.483 78.4381 123.483 78.8496C123.163 79.0782 123.003 78.9868 123.003 78.5753Z" fill="black"/>
<path d="M145.567 72.8142C147.83 73.0885 150.093 73.1571 152.357 73.02C152.905 73.02 153.523 72.7456 153.797 73.2943C151.534 73.9801 149.133 73.7058 146.733 73.5686C146.39 73.3629 145.018 73.4315 145.567 72.8142Z" fill="black"/>
<path d="M73.2795 94.8298C74.9256 93.3209 77.1888 92.5665 79.3835 92.0178C79.4521 92.0864 79.7264 92.3607 79.795 92.4293C77.9432 92.9094 76.0914 93.5267 74.4454 94.624C76.3658 94.2125 78.149 93.7324 80.0008 93.3209C79.8636 93.7324 79.5207 94.0068 79.1092 94.0753C77.2574 94.5554 75.4056 95.1727 73.4853 95.3784C73.4167 95.2413 73.2795 94.9669 73.2795 94.8298Z" fill="black"/>
<path d="M213.122 53.8165C213.442 53.7251 213.762 53.6336 214.082 53.5422C214.014 53.6793 213.877 53.9537 213.808 54.1594C208.801 57.3143 203.726 60.5377 198.582 63.4868C197.348 64.1041 196.25 64.9957 194.947 65.3386C195.016 65.2014 195.222 64.9271 195.359 64.7899C201.326 61.2236 207.43 57.7944 213.122 53.8165Z" fill="black"/>
<path d="M145.155 73.4315C145.293 73.5001 145.635 73.6373 145.773 73.7059C146.184 75.009 146.87 76.1749 147.144 77.478C147.624 78.7125 147.624 80.0842 147.967 81.3187C147.899 81.5244 147.762 81.9359 147.693 82.1417C147.213 81.6616 147.281 80.9757 147.144 80.3585C146.527 78.0266 145.841 75.7634 145.155 73.4315Z" fill="black"/>
<path d="M180.133 63.8299C181.093 62.8697 182.602 63.0069 183.837 63.2812C184.866 63.5556 185.894 63.0069 186.992 62.7326C188.638 62.3211 190.078 61.018 191.861 60.9494C192.821 60.8808 194.193 61.1551 194.262 62.3896C193.576 62.0467 192.89 61.3609 192.067 61.5666C190.627 61.5666 189.392 62.3211 188.158 62.9383C187.015 63.3498 185.849 63.6699 184.66 63.8985C183.494 63.8985 182.191 63.4184 181.025 63.8985C180.613 64.1728 180.133 64.4472 180.133 64.9958C179.79 65.956 181.025 66.2989 181.505 66.9162C180.613 67.1905 179.928 66.3675 179.516 65.6817C179.447 65.0644 179.585 64.2414 180.133 63.8299Z" fill="black"/>
<path d="M130.547 78.0267C130.684 77.9581 130.89 77.7523 130.959 77.6152C131.233 79.3298 131.576 81.0444 131.233 82.8276C130.959 85.2966 129.587 87.6284 127.461 89.0001C124.443 91.0576 120.671 91.812 117.036 91.4691C115.733 91.1948 114.498 90.7147 113.47 89.8917V89.4802C114.704 89.9603 115.87 90.6461 117.173 90.8519C120.808 91.0576 124.649 90.0974 127.598 87.9028C129.655 86.3253 130.547 83.7191 130.753 81.1815C130.89 80.1528 130.684 79.0554 130.547 78.0267Z" fill="black"/>
<path d="M122.317 81.25C122.683 81.0214 122.843 81.1357 122.797 81.593C122.386 81.8216 122.226 81.7073 122.317 81.25Z" fill="black"/>
<path d="M46.7375 103.266C47.4234 103.06 48.1092 103.334 48.7951 103.54C49.9839 103.768 51.1955 103.997 52.43 104.226C57.7795 104.706 63.1977 104.569 68.5472 104.02C77.3259 103.403 85.9675 101.962 94.5405 100.042C95.455 99.9507 96.3465 99.7678 97.2152 99.4934C98.5183 99.0819 99.89 99.0134 101.262 98.6019C104.417 97.7103 107.64 96.8187 110.863 96.0642C114.155 95.3098 117.242 94.0067 120.534 93.1151C123.14 92.2921 125.815 91.6749 128.352 90.6461C130.616 89.8231 132.947 89.4116 135.211 88.52C137.2 87.6284 139.394 87.2855 141.452 86.3939C143.441 85.5709 145.704 85.2966 147.693 84.2678C149.545 83.582 151.602 83.1705 153.454 82.3475L153.591 82.759C152.974 82.9647 152.425 83.1705 151.877 83.4448C150.573 84.0621 149.065 84.2678 147.762 84.8851C146.047 85.7081 144.127 85.9824 142.343 86.7368C140.56 87.5599 138.64 87.8342 136.788 88.5886C134.593 89.5488 132.124 89.8917 129.93 90.9205C127.118 91.8806 124.237 92.5665 121.425 93.5266C118.339 94.6926 115.184 95.447 112.029 96.4072C109.149 97.1616 106.268 98.1218 103.251 98.6704C101.125 99.1505 99.067 99.9735 96.8723 100.179C95.1577 100.728 93.3745 100.865 91.7285 101.345C86.4476 102.374 81.2352 103.334 75.8857 103.951C70.8791 104.5 65.941 105.049 60.8658 105.186C56.545 105.186 52.0871 105.186 47.9035 103.814C47.492 103.746 47.1491 103.471 46.7375 103.266Z" fill="black"/>
<path d="M117.31 83.7876C117.722 83.5132 117.905 83.6047 117.859 84.0619C117.493 84.3362 117.31 84.2448 117.31 83.7876Z" fill="black"/>
<path d="M147.007 76.1064C149.27 75.8321 151.534 75.6949 153.66 74.6662C154.551 74.1861 155.512 73.9117 156.54 73.706C156.472 73.8432 156.335 74.1175 156.266 74.2547C153.523 75.4892 150.573 76.5865 147.556 76.5179C147.419 76.3808 147.144 76.175 147.007 76.1064Z" fill="black"/>
<path d="M47.012 105.666C47.7664 106.215 48.0407 107.175 48.5894 107.929C50.0982 110.261 52.0186 112.25 53.8018 114.307C56.2022 117.257 58.6026 120.274 61.1402 123.018C64.9124 126.927 69.0274 130.356 73.4853 133.374C81.6468 138.929 90.5627 143.661 100.302 145.925C101.605 146.199 102.908 146.542 104.279 146.816C105.194 146.999 106.108 147.159 107.023 147.296C107.8 147.479 108.6 147.639 109.423 147.776C110.383 147.914 111.412 148.051 112.372 148.188C113.744 148.325 115.116 148.531 116.487 148.599C121.494 149.079 126.638 149.697 131.644 149.079C132.056 148.942 132.399 149.148 132.673 149.285C131.302 149.902 129.793 149.834 128.284 149.902C122.934 150.04 117.585 149.285 112.235 148.805C111.069 148.599 109.903 148.462 108.737 148.256C108.097 148.165 107.48 148.051 106.886 147.914C106.566 147.868 106.246 147.822 105.925 147.776C105.56 147.685 105.171 147.593 104.76 147.502C103.456 147.228 102.085 146.953 100.782 146.61C100.05 146.473 99.3415 146.313 98.6556 146.13C90.2884 144.004 82.4698 139.958 75.2685 135.294C69.9875 131.865 65.0495 128.024 60.7287 123.498C60.363 123.086 59.9972 122.698 59.6314 122.332C58.8084 121.372 57.9168 120.343 57.0938 119.314C54.8305 116.571 52.4987 113.759 50.1668 111.015C48.8637 109.438 47.3549 107.723 47.012 105.666Z" fill="black"/>
<path d="M153.797 76.7236C155.854 75.6948 157.912 74.5975 159.97 73.5001C160.107 73.6373 160.312 73.843 160.45 73.9116C157.295 75.4891 154.346 77.5466 150.848 78.0952C150.711 78.0267 150.436 77.8895 150.299 77.7523C151.465 77.3408 152.7 77.1351 153.797 76.7236Z" fill="black"/>
<path d="M48.3151 105.666C49.0695 105.529 49.7553 105.872 50.4412 106.078C52.9102 106.763 55.5164 106.832 58.1225 106.695C68.5473 106.421 79.0406 105.735 89.3968 104.226C89.9455 104.157 90.4256 104.02 90.9742 103.883C90.9285 104.294 90.7227 104.523 90.357 104.569C87.2707 105.186 84.1844 105.529 81.0296 105.803C74.3084 106.558 67.5871 106.969 60.8659 107.244C57.8482 107.312 54.7619 107.586 51.7443 106.969C50.5783 106.695 49.2752 106.489 48.3151 105.666Z" fill="black"/>
<path d="M149.888 81.3186C154.209 79.9469 158.598 78.4381 162.233 75.6947C162.37 76.4491 161.547 76.8606 161.067 77.2721C159.078 78.5066 157.021 79.4668 154.826 80.2212C153.317 80.9757 151.671 81.3872 150.094 81.7301C150.025 81.6615 149.956 81.4557 149.888 81.3186Z" fill="black"/>
<path d="M80.0008 100.111C81.784 99.5621 83.7043 99.1506 85.3503 98.259C85.3503 98.3961 85.2818 98.6705 85.2818 98.8076C83.2242 99.905 80.8924 100.454 78.6291 101.002C78.7663 100.385 79.4521 100.316 80.0008 100.111Z" fill="black"/>
<path d="M64.0893 120.274C63.815 119.931 63.1292 119.314 63.9522 119.52C67.4499 122.537 71.565 124.664 75.5429 126.858C86.6534 132.414 98.1755 137.214 110.315 139.958C112.304 140.369 114.293 140.712 116.35 141.055C117.653 141.261 118.956 141.398 120.26 141.672C120.854 141.718 121.448 141.787 122.043 141.878C123.071 142.015 124.169 142.084 125.266 142.221C126.043 142.267 126.821 142.335 127.598 142.427C128.352 142.427 129.107 142.495 129.861 142.633C129.381 143.113 128.627 143.044 127.941 143.044C125.54 142.907 123.14 142.701 120.74 142.358C115.321 141.672 109.903 140.781 104.622 139.272C95.295 136.734 86.3105 132.894 77.6689 128.641C73.0052 126.104 68.0672 123.772 64.0893 120.274Z" fill="black"/>
<path d="M195.359 119.794C198.102 117.943 200.571 115.748 202.903 113.485C202.972 113.828 203.04 114.308 202.697 114.582C201.051 116.434 199.131 117.943 197.142 119.451C196.045 120.206 195.016 121.029 193.781 121.372C194.056 120.617 194.81 120.274 195.359 119.794Z" fill="black"/>
<path d="M206.195 118.697C206.881 118.217 207.498 117.668 208.253 117.462C208.047 118.217 207.224 118.491 206.675 119.04C202.972 122.263 199.062 125.281 194.947 128.024C190.489 131.042 185.826 133.648 181.025 136.049C175.744 138.586 170.532 141.124 165.045 143.044C163.605 143.799 161.89 144.004 160.381 144.69C158.324 145.445 156.198 146.062 154.003 146.473C152.288 146.816 150.642 147.434 148.928 147.639C145.27 148.462 141.589 149.057 137.886 149.422C137.954 149.354 138.023 149.08 138.091 149.011C141.726 148.325 145.43 147.914 149.065 146.953C151.191 146.748 153.111 145.993 155.169 145.513C163.536 143.387 171.492 139.958 179.173 136.186C186.786 132.551 193.987 128.299 200.64 123.155C201.394 122.538 202.217 121.989 202.972 121.372C203.429 120.96 203.909 120.572 204.412 120.206C205.006 119.703 205.601 119.2 206.195 118.697Z" fill="black"/>
<path d="M204.48 122.195C206.469 122.675 206.949 124.869 208.115 126.241C208.527 126.698 208.824 127.224 209.007 127.819C208.87 127.75 208.527 127.681 208.39 127.681C208.024 127.178 207.658 126.676 207.292 126.173C206.401 125.075 205.989 123.635 204.686 122.881C204.686 122.743 204.549 122.4 204.48 122.195Z" fill="black"/>
<path d="M133.976 143.524C134.113 143.387 134.388 143.25 134.525 143.113C135.622 143.113 136.72 143.113 137.817 143.113C138.16 143.044 138.503 143.181 138.708 143.524C137.131 143.661 135.554 143.867 133.976 143.524Z" fill="black"/>
<path d="M203.795 126.995C203.452 126.378 203.04 125.624 203.863 125.212C204.138 126.31 205.235 127.75 204.275 128.779C202.972 130.356 201.257 131.453 199.68 132.688C198.582 133.442 197.554 134.471 196.319 134.883C196.25 134.471 196.593 134.197 196.868 133.922C198.925 132.276 201.12 130.768 203.109 128.984C203.589 128.504 204.343 127.75 203.795 126.995Z" fill="black"/>
<path d="M207.43 129.396C207.91 129.053 208.458 128.71 209.076 128.573C208.938 128.893 208.756 129.144 208.527 129.327C204.686 132.208 201.051 135.294 197.211 138.106C188.912 144.416 179.516 149.217 169.709 152.44C166.142 153.537 162.507 154.566 158.872 155.526C157.569 155.869 156.266 156.349 154.963 156.555C153.111 156.761 151.328 157.584 149.476 157.721C147.213 158.338 144.813 158.544 142.481 159.093C142.206 159.161 141.315 159.436 141.452 158.818C144.332 157.858 147.487 157.79 150.436 156.829C152.357 156.555 154.209 156.075 156.06 155.526C160.45 154.635 164.702 153.332 169.023 152.029C170.6 151.274 172.315 151 173.892 150.245C180.065 147.982 185.894 144.896 191.381 141.33C194.536 139.272 197.554 137.009 200.503 134.745C202.789 132.917 205.098 131.133 207.43 129.396Z" fill="black"/>
<path d="M138.503 151.549C138.571 151.411 138.777 151.206 138.914 151.137C139.326 152.715 139.051 154.361 139.532 155.938C139.669 157.172 140.423 158.338 140.286 159.573C139.532 159.23 139.463 158.407 139.257 157.721C138.571 155.732 138.571 153.606 138.503 151.549Z" fill="black"/>
<path d="M191.244 138.243C192.067 137.626 192.753 136.734 193.781 136.391C193.439 137.557 192.273 138.175 191.45 138.929C190.215 139.821 189.049 140.918 187.609 141.467C187.746 141.124 187.883 140.781 188.226 140.507C189.186 139.752 190.215 138.998 191.244 138.243Z" fill="black"/>
<path d="M141.383 152.097C141.52 151.96 141.726 151.686 141.795 151.549C142.138 152.92 142.206 154.429 142.069 155.801C141.932 155.801 141.726 155.869 141.589 155.869C141.52 154.635 141.452 153.332 141.383 152.097Z" fill="black"/>
</svg>
