<svg width="243" height="180" viewBox="0 0 243 180" fill="none" xmlns="http://www.w3.org/2000/svg">
<path d="M226.353 136.736C226.353 134.992 227.858 134.12 229.158 133.539C229.751 133.781 230.344 134.024 230.937 134.266C231.348 135.356 231.964 136.591 231.211 137.608C230.185 139.716 226.627 139.134 226.353 136.736Z" fill="black"/>
<path d="M123.445 15.0243C127.414 14.7336 131.359 14.7336 135.282 15.0243C142.946 15.0243 150.609 16.2596 157.93 18.6575C158.067 18.5121 158.272 18.2215 158.409 18.0762C158.729 18.4153 159.048 18.7543 159.367 19.0934C160.188 19.0934 161.078 19.5294 161.557 20.3287C161.42 20.4741 161.283 20.7647 161.215 20.91C162.446 23.6713 163.199 26.7232 164.294 29.557C165.594 33.7715 167.509 37.7681 169.015 41.9099C170.041 44.6711 171.067 47.4324 171.889 50.3389C172.983 53.9721 173.668 57.678 174.762 61.3112C176.336 65.5983 178.047 69.8128 179.483 74.1C180.168 76.8612 181.331 79.6225 181.057 82.6017C180.305 82.529 179.62 82.093 179.073 81.6571C175.583 79.2591 172.299 76.6432 168.536 74.6813C164.499 72.5014 160.257 70.6121 156.151 68.5049C155.057 67.8509 153.688 67.5603 152.73 66.6156C150.609 63.4911 148.967 60.0032 147.256 56.588C143.356 50.1936 138.567 44.3805 134.051 38.422C127.687 30.429 121.256 22.3633 113.387 16.0416C113.387 15.8236 113.387 15.3149 113.455 15.0969C114.345 15.6056 115.44 15.5329 116.466 15.3876C118.792 14.9516 121.119 15.1696 123.445 15.0243Z" fill="#E56E0C"/>
<path d="M99.4972 18.9482C100.318 18.5849 101.003 19.3115 101.55 19.8201C102.987 21.3461 104.629 22.5087 105.997 24.1073C110.719 27.6678 114.55 32.2457 118.587 36.6055C123.445 42.2006 128.645 47.4324 133.845 52.6642C135.693 54.6988 137.677 56.8787 138.977 59.422C139.251 59.9306 139.388 61.1659 138.498 61.0206C135.077 59.7853 131.656 58.6227 128.03 58.1867C125.019 58.0414 122.008 57.9687 118.998 58.2593C114.756 58.6227 110.582 58.1867 106.408 58.8407C104.561 59.1313 102.987 57.7507 101.276 57.1694C95.6656 54.4808 89.7812 52.5189 84.1021 49.903C78.8335 47.5777 73.7018 45.1072 68.5017 42.7819C67.2701 42.2006 65.9016 42.6366 64.6016 42.6366C63.7121 42.2733 64.5332 41.474 64.8753 40.9653C66.9964 38.4221 69.6649 36.3875 72.1965 34.2803C76.9177 30.5017 81.9125 27.2319 87.0443 24.2526C91.0128 22.0001 95.4603 20.9828 99.4972 18.9482Z" fill="#E56E0C"/>
<path d="M175.446 26.3599C175.446 25.706 175.446 25.052 175.994 24.5433C176.336 25.27 176.473 26.142 177.157 26.5779C180.099 28.8305 182.699 31.5191 185.573 33.9896C189.61 37.7682 193.579 41.7647 197.342 45.9792C199.873 48.9584 202.2 52.3009 203.363 56.2248C204.731 59.7127 204.937 63.5638 205.347 67.3424C206.305 76.498 208.358 85.5083 211.642 94.0827C213.216 98.2972 214.79 102.584 217.048 106.436C217.321 107.017 217.869 107.598 217.527 108.325C216.842 108.615 216.295 108.107 215.748 107.816C214.105 106.944 212.6 105.854 210.958 105.128C209.111 104.401 207.605 103.02 205.895 101.93C204.252 100.913 202.679 99.6778 201.037 98.5878C198.3 96.9892 195.836 95.0273 193.579 92.8474C191.731 91.3215 190.226 89.4322 188.447 87.9062C188.036 86.7436 187.968 85.5083 187.763 84.2731C187.147 79.6952 185.984 75.1901 185.163 70.6849C184.205 65.5984 183.315 60.4393 182.22 55.3528C181.057 50.1937 179.757 45.1072 178.594 39.9481C177.978 37.2595 177.841 34.4256 177.226 31.7371C176.815 30.2111 176.404 28.6852 176.062 27.0866C175.857 26.9412 175.583 26.5779 175.446 26.3599Z" fill="#E56E0C"/>
<path d="M58.375 51.3562C58.7856 51.2109 59.2189 51.0656 59.675 50.9202C59.7435 51.1382 59.8803 51.5015 59.9487 51.7195C63.8488 52.3735 67.7489 53.2455 71.5806 54.2627C79.1755 56.37 87.1126 57.3873 94.4338 60.3665C95.4602 60.5845 95.8023 61.8925 94.776 62.4011C92.4496 63.6364 89.9179 64.581 87.5916 65.889C81.5019 68.8682 76.2334 73.446 69.87 75.9893C67.4752 77.1519 64.5331 76.7159 62.2751 75.2626C59.7435 73.3734 58.3066 70.3941 56.9381 67.5603C55.9802 65.3803 54.7486 63.3457 54.2012 60.9478C54.0644 60.0759 53.9275 59.2039 54.4065 58.4773C55.1591 56.9513 55.9118 55.4254 56.8013 53.9721C57.3487 53.1001 58.0329 52.3735 58.375 51.3562Z" fill="#E56E0C"/>
<path d="M213.147 74.4634C213.284 74.3181 213.489 74.1001 213.626 73.9548C214.242 75.1174 215.405 75.7714 215.953 76.934C216.705 78.5326 218.005 79.6226 219.032 81.0758C221.221 83.9824 223.342 87.0343 226.148 89.2869C228.679 91.5394 231.553 93.5014 233.743 96.1173C235.453 98.0792 237.369 100.404 237.164 103.311C237.027 104.764 235.727 105.491 234.837 106.29C232.922 108.034 230.664 109.197 228.337 110.214C227.037 110.723 225.806 111.813 224.369 111.377C223.274 109.923 223 108.034 222.316 106.363C220.742 102.003 219.648 97.4252 218.279 92.92C216.363 86.8163 215.405 80.4219 213.147 74.4634Z" fill="#E56E0C"/>
<path d="M125.429 14.7337C125.771 14.443 126.045 13.9344 126.593 14.007C130.082 14.225 133.64 13.8617 137.13 14.0797C140.072 14.5157 143.014 14.7337 145.888 15.2423C145.797 15.6783 145.546 15.8721 145.135 15.8236C142.056 15.8236 139.045 15.315 135.966 15.0243C134.256 14.661 132.477 14.661 130.766 14.9517C128.987 15.315 127.208 14.661 125.429 14.7337Z" fill="black"/>
<path d="M115.44 14.8062C118.245 14.8789 120.914 14.1523 123.719 14.4429C123.65 14.5883 123.514 14.8789 123.445 15.0969C120.229 15.0969 116.945 15.6055 113.729 15.8235C109.829 16.0415 106.134 17.5675 102.234 17.8581C99.4288 18.3668 96.4866 18.8754 94.0234 20.6194C91.9707 21.6367 89.7812 22.5086 87.9338 23.9619C85.4705 25.8512 82.7336 27.3044 79.9283 28.467C79.5177 28.467 78.6967 29.2664 78.6282 28.467C79.1756 28.0311 79.7914 27.7404 80.4072 27.4498C82.7336 26.2871 84.9915 25.1245 87.0442 23.4532C88.2758 22.436 89.7812 21.6366 91.218 20.91C92.0391 20.5225 92.8602 20.1592 93.6812 19.8201C94.0006 19.6263 94.3427 19.4325 94.7076 19.2388C95.483 18.8997 96.2813 18.609 97.1024 18.3668C97.7866 18.1488 98.4024 18.0035 99.0182 17.7855C103.192 17.2042 107.161 15.8962 111.266 15.1696C112.703 15.1696 114.071 14.8789 115.44 14.8062Z" fill="black"/>
<path d="M149.035 15.8237C150.541 15.6783 152.046 16.1143 153.483 16.4776C157.314 16.9863 160.941 18.5122 164.636 19.5295C166.004 19.7475 167.099 20.6922 168.194 21.4915C164.294 20.5468 160.393 19.6749 156.63 18.3669C154.441 17.7856 152.32 16.9136 150.062 16.4776C149.697 16.3323 149.355 16.1143 149.035 15.8237Z" fill="black"/>
<path d="M115.713 20.1835C116.124 20.232 116.466 20.45 116.74 20.8375C118.45 23.2354 120.708 25.27 122.692 27.4499C125.566 30.4291 128.098 33.7717 130.972 36.8236C132.887 39.0761 135.009 41.1834 136.924 43.436C140.414 47.6505 143.493 52.2283 146.777 56.6608C147.462 57.4601 148.146 58.3321 148.693 59.2767L148.351 59.4947C146.093 57.2421 144.451 54.4809 142.535 51.9377C140.14 48.8131 138.019 45.4706 135.282 42.6367C133.024 40.3114 130.972 37.7682 128.782 35.4429C126.866 33.481 125.361 31.1558 123.377 29.2665C121.256 26.8686 118.861 24.6887 116.945 22.0728C116.466 21.4915 115.85 20.9828 115.713 20.1835Z" fill="black"/>
<path d="M106.613 20.4014C107.982 21.0553 108.734 22.4359 109.761 23.3806C111.95 25.5605 113.729 28.0311 115.713 30.3563C118.861 33.6988 121.803 37.114 124.814 40.5292C124.814 40.6746 124.882 41.0379 124.882 41.1832C122.761 39.2213 120.913 36.8961 118.861 34.8615C115.234 31.1556 112.224 26.8684 108.597 23.1626C107.913 22.2906 106.818 21.6367 106.613 20.4014Z" fill="black"/>
<path d="M171.957 23.2352C173.599 23.5258 175.036 24.5431 176.473 25.4878C179.757 27.7403 182.836 30.3562 185.847 32.9721C187.899 34.6434 189.61 36.6053 191.389 38.6399C191.663 39.1485 192.347 39.7299 192.21 40.3838C191.731 40.1659 191.389 39.7299 191.047 39.2939C188.72 36.678 186.326 34.0621 183.52 32.1001C179.689 29.2663 175.994 26.1417 171.82 23.8165C171.888 23.6711 171.957 23.3805 171.957 23.2352Z" fill="black"/>
<path d="M166.346 27.3771C166.483 27.3771 166.825 27.3771 166.962 27.3044C167.167 29.339 167.92 31.2283 168.536 33.1176C170.11 37.0414 171.204 41.1832 172.367 45.3251C175.104 53.8994 177.431 62.6191 179.826 71.2661C180.168 72.792 180.852 74.2453 181.057 75.7712C179.689 74.6086 179.689 72.5014 179.004 70.8301C178.731 69.7401 178.389 68.6502 178.115 67.4876C176.883 63.3457 175.857 59.1312 174.625 54.9167C174.01 52.8095 173.394 50.7022 172.778 48.595C172.436 47.6503 172.162 46.633 171.82 45.6884C170.931 42.5638 170.11 39.4393 169.083 36.3874C168.809 35.7577 168.581 35.1279 168.399 34.4982C167.578 32.1729 166.552 29.8477 166.346 27.3771Z" fill="black"/>
<path d="M71.1701 35.1521C72.4701 33.9895 73.5649 32.4635 75.0702 31.5916C75.0702 31.8822 75.0017 32.4635 75.0017 32.6815C71.8999 36.1209 68.684 39.4392 65.3541 42.6364C63.7804 44.0897 62.8909 46.1243 61.5909 47.8683C60.7014 49.1035 60.154 50.5568 59.3329 51.7921C58.4434 53.4634 57.0066 54.626 56.3223 56.3699C55.9118 57.3146 55.5697 58.2592 55.2276 59.2765C55.0907 60.1485 55.0907 61.0204 54.6118 61.8197C53.7907 61.0204 54.2696 59.7851 54.4749 58.7678C55.0907 56.8059 55.8434 54.844 57.1434 53.2454C58.854 51.2108 59.675 48.5222 61.2488 46.415C62.2067 44.889 63.0962 43.2178 64.3962 41.9825C66.7226 39.7299 68.8437 37.332 71.1701 35.1521Z" fill="black"/>
<path d="M175.72 32.827C175.925 32.9723 176.199 33.1903 176.404 33.263C177.362 37.1868 178.32 41.1107 179.141 45.1072C179.894 48.813 180.92 52.4462 181.604 56.1521C182.699 62.0378 183.999 67.9236 184.889 73.9547C184.752 73.7367 184.41 73.3008 184.205 73.0828C182.562 64.3631 181.126 55.5708 178.936 46.9964C177.978 42.2733 176.746 37.5501 175.72 32.827Z" fill="black"/>
<path d="M192.278 40.5294C194.673 41.8374 196.042 44.4533 197.821 46.5605C202.337 52.083 205.347 58.7681 209.042 64.9445C211.71 69.7403 214.721 74.3908 217.732 79.0413C219.032 80.5672 220.4 82.0932 221.563 83.8371C221.769 84.2004 222.248 84.5637 222.179 85.0724C221.563 85.2904 221.221 84.5637 220.879 84.2004C219.853 82.6745 218.553 81.4392 217.39 80.1312C215.132 77.0067 213.284 73.6641 211.3 70.3216C207.947 64.6538 204.389 59.0587 201.173 53.3183C199.189 49.7577 196.726 46.4879 194.331 43.218C193.647 42.2734 192.621 41.692 192.278 40.5294Z" fill="black"/>
<path d="M67.8859 43.6539C69.1175 43.5086 70.2807 44.0172 71.4439 44.4532C74.6597 45.7612 77.944 46.7785 81.0915 48.3771C84.4442 49.903 88.0022 50.9203 91.4233 52.2283C93.4076 53.0276 95.5971 53.6089 97.513 54.6988C96.4866 54.9895 95.5971 54.5535 94.7076 54.1902C90.2601 52.5916 85.8127 51.211 81.4336 49.3944C77.7388 47.6504 73.9071 46.3425 70.1438 44.8165C69.3227 44.4532 68.3648 44.4532 67.8859 43.6539Z" fill="black"/>
<path d="M127.893 43.5085C128.782 43.6539 129.261 44.4532 129.945 44.9618C131.04 45.9065 131.998 46.9964 133.093 47.941C133.572 48.4497 134.324 48.8857 134.461 49.685C132.888 49.1037 131.793 47.5777 130.561 46.4878C129.74 45.4705 128.166 44.9618 127.893 43.5085Z" fill="black"/>
<path d="M62.4804 50.6296C67.3384 50.993 72.0595 51.8649 76.7807 53.1729C81.5703 54.1175 86.1546 55.7161 90.8074 57.0967C90.8074 57.2421 90.739 57.46 90.6706 57.6054C87.3863 56.8787 84.102 55.7161 80.8177 54.9168C76.4386 54.0449 72.128 52.9549 67.6805 52.1556C65.9699 51.7923 64.191 51.7923 62.4804 51.3563C62.4804 51.1383 62.4804 50.8476 62.4804 50.6296Z" fill="black"/>
<path d="M117.971 54.0448C121.598 54.6261 125.224 55.2074 128.782 56.0794C131.382 56.588 133.982 57.3873 136.582 57.896C138.361 58.2593 140.209 58.332 141.988 58.9133C141.988 59.0586 141.919 59.3493 141.919 59.5673C139.182 58.9859 136.309 58.768 133.572 58.0413C128.782 56.806 123.924 55.7161 118.998 54.9894C118.45 54.8441 117.903 54.6988 117.424 54.5535C117.561 54.4081 117.834 54.1901 117.971 54.0448Z" fill="black"/>
<path d="M137.814 53.8995C139.114 54.4808 140.414 55.4254 141.098 56.7334C139.73 56.2974 138.498 55.2074 137.814 53.8995Z" fill="black"/>
<path d="M99.4288 56.8786C101.687 56.2247 103.876 55.3527 106.203 55.5707C105.313 56.5153 104.013 56.2247 102.918 56.588C97.2393 58.1866 91.697 60.1485 86.36 62.6191C84.5126 63.4911 82.5968 64.363 80.7494 65.1623C79.7002 65.6952 78.6739 66.2523 77.6704 66.8336C76.9177 67.2696 76.2335 67.7782 75.4808 68.1415C74.3176 68.8682 73.2229 69.6675 72.0597 70.3941C70.2807 71.4841 68.3648 71.9927 66.3806 72.4287C65.6963 72.0654 64.8753 71.6294 64.8069 70.7574C65.0805 70.9028 65.5595 71.2661 65.8332 71.4841C67.2701 71.5568 68.5701 70.9754 69.9386 70.6121C74.1124 68.5049 77.8072 65.5256 82.1178 63.709C82.9389 63.3457 83.76 62.9824 84.581 62.6191C85.539 62.1831 86.4741 61.7471 87.3864 61.3111C91.3549 59.5672 95.3919 58.1866 99.4288 56.8786Z" fill="black"/>
<path d="M104.971 58.1139C109.145 57.6779 113.387 57.1693 117.561 57.4599C119.408 57.7506 121.324 57.6053 123.171 57.9686C124.403 58.1139 125.703 58.4772 127.003 58.4772C127.071 58.6226 127.208 58.9859 127.277 59.1312C126.957 59.2765 126.638 59.3976 126.319 59.4945C119.066 58.4772 111.608 58.5499 104.287 59.6399C100.181 60.3665 96.2128 61.7471 92.3127 63.1277C88.002 64.6537 84.2388 67.4876 80.065 69.3041C79.6089 69.5464 79.1299 69.7886 78.6281 70.0308C75.7544 71.7021 73.3596 74.0273 70.7595 76.1345C69.1858 77.5878 66.8594 77.8058 64.8752 77.6605C63.0277 76.8612 60.4277 76.6432 59.6066 74.3906C58.375 71.3387 57.075 68.2869 55.5697 65.3076C55.3644 64.581 55.1591 63.8544 55.0907 63.1277C55.5468 63.1277 55.8661 63.3457 56.0486 63.7817C57.3486 66.3976 58.5803 69.0135 59.6066 71.7747C60.2224 73.3733 61.0435 75.2626 62.8225 75.5532C64.1225 75.7712 65.2173 77.0792 66.5857 76.6432C67.7489 76.4252 68.9121 76.2072 69.8016 75.4079C73.0175 72.7193 76.2333 69.9581 80.065 68.2869C81.9809 67.4633 83.8511 66.4945 85.6757 65.3803C87.7968 63.9997 89.9863 62.9097 92.3127 61.9651C96.418 60.2938 100.592 58.7679 104.971 58.1139Z" fill="black"/>
<path d="M129.603 58.7679C131.245 58.7679 132.682 59.5672 134.119 60.0759C138.156 61.3838 141.988 63.2004 146.025 64.5084C149.172 65.5257 152.046 67.1969 155.056 68.5049C156.63 69.1589 158.136 70.0308 159.709 70.6848C163.472 72.1381 167.304 73.7367 170.588 76.1346C171.273 76.7159 172.231 77.1519 172.504 78.1692C171.752 78.1692 171.204 77.5879 170.657 77.2246C167.92 75.2626 164.909 73.8094 161.83 72.5014C158.204 71.1935 154.783 69.4495 151.225 67.9236C147.598 66.107 143.63 65.1624 139.935 63.5638C136.856 62.1832 133.572 61.2385 130.493 59.8579C130.014 59.7126 129.672 59.2766 129.603 58.7679Z" fill="black"/>
<path d="M149.241 62.7643C149.309 61.8924 150.062 62.4737 150.541 62.619C150.951 62.7643 151.43 62.9823 151.909 63.2003C153.551 63.7816 155.193 64.2903 156.767 65.0169C158.067 65.5982 159.367 66.1796 160.599 66.8335C164.225 68.6501 167.783 70.394 171.273 72.5013C173.394 73.8092 175.72 74.8266 177.704 76.3525C179.483 77.6604 181.399 78.6777 183.247 79.8404C184.957 80.9303 186.736 82.0203 188.515 83.1829C189.815 84.0549 191.184 84.9995 192.415 86.0168C192.415 86.2348 192.552 86.5254 192.552 86.6708C191.252 86.0168 190.089 84.9995 188.857 84.2002C186.189 82.5289 183.52 80.8577 180.852 79.2591C178.32 77.9511 176.199 75.9892 173.599 74.8266C169.22 72.2591 164.772 69.8612 160.257 67.6328C157.314 66.0342 154.304 64.8716 151.225 63.709C150.541 63.4183 149.856 63.1277 149.241 62.7643Z" fill="black"/>
<path d="M57.9645 62.6919C58.5119 63.2005 58.7172 63.9272 59.0593 64.5812C60.4962 66.3251 61.8646 68.1417 63.5068 69.595C62.3436 69.7403 61.6593 68.6503 60.9067 67.9237C59.9488 66.6158 58.7172 65.5985 57.8961 64.2178C57.9417 63.685 57.9645 63.1763 57.9645 62.6919Z" fill="black"/>
<path d="M134.324 70.6121C134.461 70.5394 134.735 70.4667 134.872 70.4667C135.693 72.138 138.019 73.1553 139.524 71.8473C139.524 72.0653 139.524 72.5013 139.524 72.7193C139.319 72.8646 138.977 73.1553 138.84 73.3006C136.993 73.446 134.803 72.7193 134.324 70.6121Z" fill="black"/>
<path fill-rule="evenodd" clip-rule="evenodd" d="M90.1232 71.1208C91.56 70.3942 93.2706 70.5395 94.7075 71.2661C95.8707 71.9928 96.9654 72.9374 97.6497 74.1727C97.6497 74.6571 97.6725 75.1415 97.7181 75.626C96.2812 77.0066 94.2286 76.3526 92.5864 75.7713C91.5601 75.1173 90.3969 74.4633 89.5074 73.446C89.0968 72.9374 89.3021 72.2108 89.3021 71.6294C89.5074 71.4841 89.9179 71.2661 90.1232 71.1208ZM90.3969 71.7748C89.7126 71.9201 89.8495 72.5741 90.0548 73.0827C91.1495 74.1 92.3811 74.8266 93.6812 75.408C94.7759 75.6986 95.8707 75.9166 96.9654 75.408C96.9654 75.19 96.9655 74.6813 97.0339 74.4633C95.7339 72.2108 92.7917 70.5395 90.3969 71.7748Z" fill="black"/>
<path d="M113.25 70.83C113.797 71.3387 114.345 71.92 114.892 72.5013C115.098 72.5013 115.576 72.5739 115.782 72.5739C115.713 72.7919 115.576 73.1553 115.508 73.3733C114.276 73.2279 112.908 72.2833 113.25 70.83Z" fill="black"/>
<path d="M116.261 72.5015C116.945 72.7195 117.561 73.0828 118.245 73.3008C118.792 73.2282 119.203 72.7922 119.614 72.5742C119.682 72.7922 119.75 73.1555 119.75 73.3008C118.656 74.2455 117.219 73.9548 116.124 73.0829C116.192 72.9375 116.192 72.6469 116.261 72.5015Z" fill="black"/>
<path fill-rule="evenodd" clip-rule="evenodd" d="M148.83 74.536C149.719 73.228 151.43 73.0827 152.593 73.882C154.03 74.3906 155.741 74.3906 156.767 75.6259C157.383 76.4979 156.356 77.2245 155.809 77.6605C153.962 78.3871 151.977 77.9512 150.335 77.0065C149.446 76.4979 148.83 75.6259 148.83 74.536ZM149.719 74.318C149.651 74.536 149.651 75.1173 149.583 75.3353C150.883 76.8612 152.935 77.5878 154.783 77.2245C155.33 76.9339 156.425 76.7885 156.288 75.9892C154.372 74.6086 151.909 74.6813 149.719 74.318Z" fill="black"/>
<path d="M207.537 72.8649C208.358 73.8095 208.153 75.1175 208.426 76.2801C208.837 78.896 209.59 81.3665 210.411 83.8371C210.547 84.2731 210.707 84.7575 210.89 85.2904C211.163 86.017 211.46 86.7679 211.779 87.543C212.19 88.4876 212.6 89.5049 213.011 90.4495C213.421 91.4668 213.832 92.4841 214.242 93.5014C214.562 94.3734 214.904 95.2211 215.269 96.0446C215.634 96.9166 215.976 97.7886 216.295 98.6606C216.842 99.9685 217.435 101.252 218.074 102.512C217.937 102.512 217.595 102.439 217.39 102.439C216.5 101.131 216.09 99.6052 215.474 98.2246C215.109 97.3526 214.744 96.4806 214.379 95.6087C214.014 94.7852 213.672 93.9374 213.353 93.0654C212.942 92.0481 212.532 91.0793 212.121 90.1589C211.368 88.415 210.684 86.671 210.068 84.9271C208.768 81.0032 207.468 77.0067 207.537 72.8649Z" fill="black"/>
<path d="M212.326 75.9893C213.216 76.7159 213.284 77.9512 213.695 78.9685C215.132 83.3283 216.569 87.6881 217.732 92.1206C218.211 94.0826 218.826 95.9718 219.442 97.8611C219.784 98.733 220.126 99.605 220.469 100.477C220.811 101.131 221.084 101.858 221.221 102.584C221.016 102.439 220.674 102.148 220.469 102.076C220.195 101.397 219.921 100.719 219.648 100.041C218.484 97.3524 217.663 94.5912 216.911 91.7573C215.747 87.2521 214.174 82.8196 212.805 78.3145C212.6 77.5878 212.395 76.7886 212.326 75.9893Z" fill="black"/>
<path d="M71.3753 77.9512C71.2384 77.1519 72.3332 77.0066 72.47 77.7332C72.5385 78.9685 72.8806 80.2764 73.7701 81.2937C74.5912 82.0204 75.6175 82.6017 76.5754 83.183C78.4912 84.1276 79.7913 85.9442 81.7756 86.7435C81.7756 86.8888 81.6387 87.1795 81.5703 87.3248C80.4071 86.9615 79.3807 86.3075 78.4912 85.4356C77.1228 84.055 75.3438 83.401 73.7017 82.4564C72.1279 81.6571 71.5121 79.6951 71.3753 77.9512Z" fill="black"/>
<path d="M88.2759 79.6952C89.2338 80.3492 88.7549 81.8751 89.6444 82.5291C90.2602 82.6018 90.8076 82.5291 91.355 82.5291C91.9023 84.3457 93.2708 85.799 95.0498 86.5256C96.1445 86.9616 97.3762 87.1069 98.5393 87.3976C97.034 88.2695 95.1866 87.3976 93.8182 86.6709C92.4497 85.9443 91.4233 84.709 90.9444 83.1831C90.6707 83.2557 90.1917 83.4011 89.918 83.5464C89.7128 83.4011 89.2338 83.2557 89.0286 83.1104C88.3443 82.1658 88.0707 80.9305 88.2759 79.6952Z" fill="black"/>
<path d="M177.089 80.349C177.294 80.349 177.773 80.2764 178.046 80.2764C178.503 80.567 178.982 80.8577 179.483 81.1483C182.403 82.9407 185.276 84.8542 188.105 86.8888C193.236 90.74 199.052 93.5739 204.184 97.5704C208.289 100.477 211.71 104.255 216.021 106.871C216.386 107.065 216.751 107.235 217.116 107.38C218.621 108.252 220.058 109.269 221.563 110.214C221.769 110.287 222.179 110.505 222.316 110.577C223.753 110.941 225.327 111.376 226.695 110.577C228.816 109.342 230.869 107.961 233.127 107.089C234.632 106.29 235.18 104.546 235.864 103.02C236.48 101.567 236.685 99.8229 236.411 98.2243C235.659 96.4804 233.879 95.8264 232.443 94.8091C231.279 94.1551 230.185 93.3559 229.158 92.4112C226.558 90.2313 223.616 88.3421 221.7 85.3628C222.59 85.5082 223.206 86.3801 223.89 86.8888C225.874 88.778 228.2 90.304 230.116 92.1932C232.237 94.0825 235.248 94.8091 236.89 97.2797C237.985 99.0963 237.437 101.349 236.753 103.238C236.137 104.619 235.522 106.072 234.564 107.235C233.401 108.179 231.964 108.543 230.664 109.342C229.364 110.214 228.064 110.868 226.695 111.74C225.121 111.958 223.479 111.885 221.974 111.304C219.716 109.996 217.663 108.397 215.337 107.235C210.274 103.819 205.621 99.7503 200.558 96.2624C197.068 93.7918 193.51 91.6846 190.02 89.2867C186.12 86.4528 182.152 83.6916 178.046 81.1483C177.682 80.8577 177.362 80.5912 177.089 80.349Z" fill="black"/>
<path fill-rule="evenodd" clip-rule="evenodd" d="M123.24 82.8923C125.908 82.1657 128.782 82.6743 131.519 82.529C131.724 82.6017 132.066 82.8923 132.203 83.0376C132.203 83.4252 132.203 83.8127 132.203 84.2003C130.63 86.0895 128.098 86.0169 125.977 85.6535C124.882 85.4355 123.719 85.3629 122.829 84.6363C122.282 83.9823 122.829 83.401 123.24 82.8923ZM123.24 83.7643C123.514 84.2003 123.924 84.4183 124.335 84.7089C125.635 84.9269 127.003 85.2175 128.372 85.1449C129.603 85.2175 131.245 84.7089 131.656 83.2556C130.424 83.1103 129.261 83.183 128.029 83.183C126.387 83.2556 124.745 83.0376 123.24 83.7643Z" fill="black"/>
<path d="M148.146 82.8196C149.035 83.4736 149.925 84.1275 150.951 84.2729C151.704 84.4908 152.183 83.8369 152.798 83.5462C152.798 83.8369 152.73 84.3455 152.73 84.5635C151.498 85.5808 149.856 84.9995 148.693 84.2002C148.283 83.9095 148.283 83.2556 148.146 82.8196Z" fill="black"/>
<path d="M169.288 84.055C169.631 83.6917 169.973 83.1104 170.52 83.2558C170.657 83.9097 170.11 84.273 169.836 84.7817C168.673 84.8543 167.441 84.7817 166.894 83.5464C167.715 83.6191 168.467 83.8371 169.288 84.055Z" fill="black"/>
<path d="M81.8441 87.3976C82.1178 87.3249 82.5967 87.3249 82.8704 87.3249C84.7863 88.2695 86.2231 90.0135 87.3863 91.8301C86.8389 91.7574 86.36 91.6847 86.0178 91.2488C84.6494 89.9408 83.4178 88.4149 81.8441 87.3976Z" fill="black"/>
<path d="M87.9336 91.7573C88.7547 91.7573 89.781 91.6847 90.26 92.6293C91.1495 94.2279 92.4495 95.6085 94.1601 96.1898C95.3233 96.3352 96.5549 96.0445 97.6496 96.4805C98.1058 96.529 98.4023 96.7954 98.5392 97.2798C96.8286 97.2071 95.118 97.5704 93.4759 97.2798C91.4916 96.6258 89.9863 94.9545 89.2336 92.92C88.7775 92.7262 88.3442 92.5566 87.9336 92.4113C87.9336 92.1933 87.9336 91.9027 87.9336 91.7573Z" fill="black"/>
<path d="M119.271 93.4286C120.366 94.3732 120.982 95.9718 122.487 96.4078C122.556 97.2071 121.666 97.0618 121.187 96.8438C120.229 96.0445 119.066 94.9545 119.271 93.4286Z" fill="black"/>
<path d="M201.789 93.5013C205.553 95.8992 208.768 99.0237 212.532 101.276C213.49 101.858 214.448 102.439 215.405 102.948C216.569 103.82 218.416 104.328 218.758 105.999C217.321 105.128 216.158 103.965 214.653 103.384C210.411 101.131 206.853 97.9338 202.952 95.0999C202.405 94.7366 201.858 94.2279 201.789 93.5013Z" fill="black"/>
<path d="M146.846 93.9374C146.983 94.01 147.325 94.3007 147.462 94.446C147.53 95.5359 148.146 96.4806 149.035 97.0619C149.925 96.9166 150.746 96.4806 151.635 96.4806C151.909 97.5706 151.977 98.8058 152.935 99.5325C153.483 99.7505 154.099 99.5325 154.646 99.6052C154.509 100.622 153.277 100.55 152.593 100.259C151.567 99.5325 151.362 98.2972 151.02 97.2073C150.472 97.4979 149.925 97.8612 149.241 97.7159C148.077 97.7885 147.393 96.6259 146.846 95.6813C146.846 95.1 146.846 94.5187 146.846 93.9374Z" fill="black"/>
<path d="M99.634 97.4977C100.25 97.3523 100.866 96.989 101.481 96.989C103.466 97.4977 104.424 99.6049 106.203 100.55C107.708 101.567 109.624 100.55 111.061 101.567C110.445 102.584 109.418 101.494 108.529 101.93C107.366 102.294 106.203 101.785 105.176 101.204C103.876 100.332 103.055 98.9509 101.687 98.2243C101.002 97.9337 99.8393 98.4423 99.634 97.4977Z" fill="black"/>
<path d="M177.91 98.6605C178.594 100.259 180.099 101.276 181.81 101.058C181.81 102.221 180.441 101.785 179.757 101.567C178.662 101.276 177.157 99.9685 177.91 98.6605Z" fill="black"/>
<path d="M181.673 100.695C182.357 102.148 184.683 101.204 184.547 99.6777C184.068 99.8957 183.589 100.259 183.178 100.622C182.768 100.622 182.083 100.695 181.673 100.695Z" fill="black"/>
<path fill-rule="evenodd" clip-rule="evenodd" d="M166.894 100.622C167.851 100.55 168.809 100.622 169.699 101.058C171.41 102.003 173.188 103.384 173.667 105.418C173.736 106.29 172.915 106.799 172.367 107.38C171.409 107.38 170.52 107.235 169.63 106.871C167.851 105.781 166.004 103.82 166.346 101.349C166.483 101.204 166.757 100.84 166.894 100.622ZM167.03 101.422C166.757 103.892 168.809 105.636 170.725 106.581C171.227 106.581 171.752 106.581 172.299 106.581C172.846 106.145 173.325 105.273 172.71 104.619C171.957 102.875 170.109 102.366 168.673 101.422C168.125 101.422 167.578 101.422 167.03 101.422Z" fill="black"/>
<path d="M226.9 106.218C229.09 104.474 231.69 102.948 233.264 100.477C234.085 100.55 233.4 101.349 233.264 101.64C231.485 103.892 229.158 105.418 226.9 106.944C225.6 106.872 223.616 107.453 223.069 105.927C224.3 106.363 225.6 106.29 226.9 106.218Z" fill="black"/>
<path d="M111.197 102.148C111.266 102.003 111.334 101.785 111.403 101.712C114.071 102.657 117.15 101.639 119.75 103.165C122.761 104.837 126.182 105.055 129.398 106.145C132.135 106.726 134.872 105.2 137.54 105.999C139.114 106.581 140.619 107.453 142.33 107.671C145.272 108.034 148.009 109.633 150.951 110.214C151.977 109.923 152.867 109.197 153.825 108.688C153.962 109.996 152.662 110.577 151.704 111.013C149.788 111.304 148.077 109.996 146.23 109.415C144.314 108.543 142.261 108.906 140.277 108.325C138.635 107.816 137.13 106.726 135.351 106.653C133.982 106.871 132.545 107.089 131.177 107.307C129.398 107.162 127.687 106.363 125.977 105.927C123.992 105.418 122.077 105.127 120.092 104.619C118.655 104.183 117.355 103.311 115.85 103.238C114.345 102.947 112.908 103.02 111.471 102.511C111.403 102.439 111.266 102.221 111.197 102.148Z" fill="black"/>
<path d="M156.904 109.851C157.109 109.851 157.588 109.923 157.862 109.996C158.683 110.868 159.572 111.813 160.599 112.539C161.899 112.685 163.062 112.031 164.225 111.74C164.978 111.813 165.525 112.467 166.141 112.903C166.734 112.854 167.327 112.854 167.92 112.903C167.304 114.429 165.32 113.339 164.43 112.612C163.404 112.975 162.309 113.339 161.214 113.484C159.504 113.121 158.135 111.813 156.904 110.65C156.904 110.432 156.904 109.996 156.904 109.851Z" fill="black"/>
<path d="M197.957 112.83C198.71 112.467 199.189 111.74 199.6 110.941C199.691 111.377 199.805 111.837 199.942 112.321C198.231 114.646 194.947 114.792 192.621 113.557C191.526 112.83 190.431 113.992 189.336 114.21C187.557 114.501 185.71 114.646 183.931 114.283C183.862 114.138 183.726 113.847 183.726 113.702C185.368 113.484 187.078 113.339 188.72 112.975C189.884 112.757 190.978 111.885 192.21 112.176C193.236 112.539 194.194 113.193 195.289 113.193C196.178 113.266 197.068 113.048 197.957 112.83Z" fill="black"/>
<path d="M168.81 112.539C169.311 112.394 169.836 112.394 170.383 112.539C170.999 112.902 171.615 113.266 172.299 113.556C173.325 113.847 174.283 113.12 175.31 113.411C176.678 113.629 177.978 113.992 179.415 114.065C179.347 114.21 179.21 114.501 179.21 114.719C177.91 114.864 176.61 114.719 175.378 114.501C174.283 114.21 173.12 115.082 172.025 114.574C170.931 114.065 169.767 113.411 168.81 112.539Z" fill="black"/>
<path fill-rule="evenodd" clip-rule="evenodd" d="M15.2687 128.017C11.7792 127.29 8.22117 126.491 4.73161 125.691C4.93688 124.674 4.93688 123.584 5.07372 122.494C5.48426 121.477 5.89481 120.387 6.64746 119.515C6.64746 119.37 6.71589 119.079 6.71589 118.934C9.24753 119.37 11.7108 120.096 14.2424 120.605C70.7596 134.266 127.414 147.563 183.931 161.442C184.752 161.733 185.71 161.587 186.531 162.096C186.531 162.459 186.531 162.895 186.599 163.259C186.736 164.058 186.326 164.857 185.984 165.511C184.615 165.511 183.384 164.857 182.015 164.785C180.783 164.349 179.483 164.349 178.32 163.913C176.883 163.767 175.583 163.186 174.215 163.113C173.12 162.677 171.889 162.677 170.794 162.314C169.767 162.023 168.604 162.023 167.578 161.587C166.209 161.442 164.909 160.933 163.541 160.788C162.515 160.425 161.488 160.352 160.462 160.061C151.43 158.172 142.398 156.138 133.435 154.176C132.888 154.103 132.34 154.03 131.793 153.74C119.271 151.196 106.887 148.217 94.3655 145.601C93.476 145.238 92.5181 145.238 91.6286 144.947C66.2437 139.352 40.722 133.684 15.2687 128.017ZM5.68955 124.965C6.78431 123.366 7.6738 121.477 7.60538 119.515C7.12642 119.878 6.57902 120.314 6.44218 120.896C5.75795 122.131 5.34743 123.511 5.34743 124.892C5.41585 124.965 5.62112 124.965 5.68955 124.965ZM12.395 126.781C12.395 126.781 12.4178 126.757 12.4634 126.709C13.2845 127.072 14.174 127.072 15.0635 127.363C18.3477 128.017 21.632 128.816 24.9163 129.47C25.9427 129.906 27.1059 129.761 28.1322 130.197C31.3481 130.778 34.4955 131.65 37.7114 132.304C38.8746 132.667 40.0378 132.594 41.1325 133.03C48.7275 134.629 56.254 136.446 63.8489 137.899C70.6912 139.57 77.6019 140.951 84.4442 142.549C118.245 149.888 152.046 157.3 185.778 165.003C185.87 164.227 185.938 163.428 185.984 162.605C185.094 162.023 183.931 162.241 182.973 161.805C172.915 159.407 162.788 157.082 152.662 154.539V154.612C119.956 146.837 87.2495 138.916 54.6118 130.996C53.9276 130.705 53.0381 130.851 52.4223 130.415C43.2537 128.307 34.085 125.982 24.9848 123.875C19.3741 122.567 13.7634 121.041 8.15275 119.878C8.08433 121.84 7.33168 123.802 6.10007 125.328C8.22117 125.837 10.3423 126.2 12.395 126.781Z" fill="black"/>
<path fill-rule="evenodd" clip-rule="evenodd" d="M207.263 157.082C207.126 157.373 206.784 157.736 206.373 157.591C172.367 147.2 138.43 136.518 104.424 125.837C80.2703 118.28 56.117 110.577 31.9638 103.093C31.0059 102.802 29.9795 102.512 29.09 102.003C29.7743 101.64 29.5006 100.768 29.7058 100.114C29.7742 98.8058 30.5269 97.6431 31.2796 96.6258C31.5533 96.4078 31.7585 96.0445 31.8269 95.6812C34.6323 96.3352 37.2323 97.4252 39.9692 98.2971C94.9127 116.681 149.993 134.774 204.937 153.304C205.826 153.74 206.852 153.812 207.674 154.321C207.537 155.193 207.81 156.283 207.263 157.082ZM206.647 157.155C206.83 156.38 206.966 155.58 207.058 154.757C203.773 153.449 200.352 152.504 197 151.342C153.756 137.1 110.582 122.494 67.4068 108.107C55.9802 104.328 44.622 100.404 33.127 96.6985C32.9901 98.2971 32.3059 99.6777 31.5532 100.986C31.2796 101.325 30.9831 101.64 30.6638 101.93C80.9545 117.698 131.245 133.248 181.536 149.089C189.884 151.85 198.3 154.394 206.647 157.155ZM31.0743 100.55C31.8269 99.2418 32.5796 97.8611 32.648 96.3352C32.1006 96.6259 31.6217 97.0618 31.348 97.6431C30.5269 98.8058 30.048 100.259 29.9795 101.712C30.3901 101.422 30.8006 101.058 31.0743 100.55Z" fill="black"/>
</svg>
